<svg xmlns="http://www.w3.org/2000/svg" version="1.1" xmlns:xlink="http://www.w3.org/1999/xlink" width="512" height="512" x="0" y="0" viewBox="0 0 512 512" style="enable-background:new 0 0 512 512" xml:space="preserve" class=""><g><g fill-rule="evenodd" clip-rule="evenodd"><path fill="#fec62a" d="M256 .001c141.345 0 255.987 114.619 255.987 255.997S397.345 511.999 256 511.999C114.608 511.999.013 397.376.013 255.998S114.608.001 256 .001z" opacity="1" data-original="#2196f3" class=""></path><path fill="#08437d" d="M175.379 185.61a9.081 9.081 0 0 0 8.228 5.245h44.197v15.612c0 5.022 4.074 9.091 9.113 9.091 5.012 0 9.086-4.069 9.086-9.091v-15.612h4.181a9.074 9.074 0 0 0 9.086-9.094 9.074 9.074 0 0 0-9.086-9.089h-4.181v-54.558a9.072 9.072 0 0 0-5.977-8.539c-3.591-1.308-7.639-.228-10.077 2.705l-53.309 63.647a9.053 9.053 0 0 0-1.261 9.683zM406 255.424c0 40.053-15.597 77.744-43.92 106.067-28.326 28.326-66.021 43.933-106.08 43.933s-77.754-15.607-106.08-43.933C121.597 333.167 106 295.477 106 255.424c0-7.527 6.103-13.639 13.631-13.639 7.542 0 13.631 6.1 13.631 13.639 0 67.664 55.076 122.727 122.737 122.727s122.737-55.062 122.737-122.727c0-61.373-45.819-113.747-106.708-121.687-7.45-.972-12.708-7.835-11.746-15.28.963-7.452 7.833-12.737 15.281-11.764 35.902 4.688 68.825 22.27 92.816 49.382C392.656 183.507 406 218.794 406 255.424zM227.804 143.131v29.541h-24.711zm46.019 193.112a9.086 9.086 0 0 0 2.761 12.557 9.011 9.011 0 0 0 4.878 1.436 9.085 9.085 0 0 0 7.665-4.186l56.606-88.353a9.115 9.115 0 0 0 .321-9.268 9.121 9.121 0 0 0-7.987-4.728h-51.674c-5.039 0-9.086 4.069-9.086 9.091s4.047 9.091 9.086 9.091h35.057zm47.6-167.055c3.538 3.551 3.538 9.308 0 12.86l-134.01 134.01c-1.796 1.774-4.101 2.661-6.433 2.661s-4.663-.887-6.432-2.661c-3.538-3.551-3.538-9.306 0-12.857l134.01-134.013c3.539-3.551 9.301-3.551 12.865 0zm-159.471-19.045c2.305-8.427.858-14.778-4.315-18.874-5.816-4.586-15.438-5.393-21.978-1.841-4.958 2.699-7.156 7.362-6.513 13.857.456 5.001-3.19 9.445-8.202 9.922-4.985.472-9.434-3.182-9.917-8.177-1.313-13.83 4.476-25.336 15.947-31.567 12.838-7 30.474-5.505 41.945 3.551 10.935 8.66 14.795 22.481 10.587 37.92-2.841 10.42-12.597 18.019-23.854 26.821-6.111 4.755-12.677 9.874-18.172 15.623h37.657c5.012 0 9.086 4.069 9.086 9.091s-4.074 9.091-9.086 9.091h-55.319c-3.109 0-6.03-1.613-7.692-4.267s-1.849-5.977-.482-8.797c7.397-15.248 20.906-25.783 32.806-35.073 7.987-6.241 16.269-12.689 17.502-17.28z" opacity="1" data-original="#ffffff" class=""></path></g></g></svg>