<svg xmlns="http://www.w3.org/2000/svg" version="1.1" xmlns:xlink="http://www.w3.org/1999/xlink" width="512" height="512" x="0" y="0" viewBox="0 0 512 512" style="enable-background:new 0 0 512 512" xml:space="preserve" class=""><g><path fill="#fec62a" d="M472.434 135.758h-160.32c-8.856 0-16.032-7.18-16.032-16.031V23.53c0-8.851 7.176-16.031 16.031-16.031h160.325c8.851 0 16.03 7.18 16.03 16.031v96.196c0 8.851-7.179 16.03-16.034 16.03zm0 0" opacity="1" data-original="#c8c5c9" class=""></path><path fill="#fec62a" d="M215.918 504.5H23.531c-8.851 0-16.031-7.18-16.031-16.031V39.566C7.5 21.856 21.855 7.5 39.566 7.5h160.32c17.712 0 32.067 14.355 32.067 32.066V488.47c0 8.851-7.18 16.031-16.035 16.031zm0 0" opacity="1" data-original="#eceaec" class=""></path><path fill="#08437d" d="M135.758 103.695H103.69a8.017 8.017 0 0 1-8.015-8.015V79.645a8.017 8.017 0 0 1 8.015-8.016h32.067a8.017 8.017 0 0 1 8.015 8.016v16.03c0 4.43-3.59 8.02-8.015 8.02zm0 0" opacity="1" data-original="#dbeaff" class=""></path><path fill="#fec62a" d="M32.094 424.34V8.633C18.289 12.21 7.5 24.64 7.5 39.566V488.47c0 8.851 7.18 16.031 16.031 16.031h192.387c8.855 0 16.031-7.18 16.031-16.031v-8.016H88.207c-30.941 0-56.113-25.176-56.113-56.113zm0 0" opacity="1" data-original="#dad8db" class=""></path><path fill="#fec62a" d="M488.469 504.5H296.082c-8.855 0-16.031-7.18-16.031-16.031V247.984c0-8.855 7.176-16.03 16.031-16.03h192.387c8.851 0 16.031 7.175 16.031 16.03V488.47c0 8.851-7.18 16.031-16.031 16.031zm0 0" opacity="1" data-original="#eceaec" class=""></path><path fill="#fec62a" d="M304.668 432.355V231.953h-8.586c-8.855 0-16.031 7.176-16.031 16.031V488.47c0 8.851 7.176 16.031 16.031 16.031h192.387c8.851 0 16.031-7.18 16.031-16.031v-8.016H352.766c-26.52 0-48.098-21.578-48.098-48.098zm0 0" opacity="1" data-original="#dad8db" class=""></path><path fill="#fec62a" d="M456.402 400.29c0 35.417-28.71 64.128-64.129 64.128-35.418 0-64.128-28.711-64.128-64.129 0-35.418 28.71-64.129 64.128-64.129s64.13 28.711 64.13 64.13zm0 0" opacity="1" data-original="#dad8db" class=""></path><path fill="#08437d" d="M424.34 400.29c0 17.71-14.356 32.065-32.067 32.065-17.707 0-32.062-14.355-32.062-32.066 0-17.707 14.355-32.062 32.062-32.062 17.711 0 32.067 14.355 32.067 32.062zm0 0" opacity="1" data-original="#ffffff" class=""></path><path fill="#fec62a" d="M312.113 264.016h48.098v32.066h-48.098zm0 0" opacity="1" data-original="#c8c5c9" class=""></path><path fill="#08437d" d="M424.34 280.047c0 8.855-7.18 16.031-16.035 16.031-8.852 0-16.032-7.176-16.032-16.031 0-8.852 7.18-16.031 16.032-16.031 8.855 0 16.035 7.18 16.035 16.03zm0 0" opacity="1" data-original="#ffffff" class=""></path><path fill="#08437d" d="M391.98 412.02a27.938 27.938 0 0 1-11.386-11.364c-5.797-10.797-5.293-21.078-1.469-29.547-15.578 7.036-24.594 26.043-14.91 45.387a26.782 26.782 0 0 0 11.847 11.852c19.344 9.687 38.36.672 45.395-14.907-8.453 3.817-18.703 4.32-29.477-1.421zM400.29 103.695h-64.13a8.017 8.017 0 0 1-8.015-8.015V47.582c0-4.43 3.59-8.016 8.015-8.016h64.13a8.012 8.012 0 0 1 8.015 8.016V95.68a8.015 8.015 0 0 1-8.016 8.015zm0 0" opacity="1" data-original="#dbeaff" class=""></path><path fill="#08437d" d="M384.258 79.645c-17.707 0-32.067-14.356-32.067-32.067v-8.016h-16.03a8.017 8.017 0 0 0-8.016 8.016v48.098c0 4.43 3.59 8.015 8.015 8.015h64.13a8.012 8.012 0 0 0 8.015-8.015V79.645zm0 0" opacity="1" data-original="#c3ddff" class=""></path><path fill="#fec62a" d="M336.16 103.695a8.017 8.017 0 0 1-8.015-8.015V7.5h-16.032c-8.855 0-16.031 7.18-16.031 16.031v96.196c0 8.851 7.176 16.03 16.031 16.03h160.324c8.852 0 16.032-7.179 16.032-16.03v-16.032zm0 0" opacity="1" data-original="#b6b1b7" class=""></path><path d="M488.469 224.453h-88.696v-81.195h72.664c12.973 0 23.532-10.555 23.532-23.531V23.53C495.969 10.56 485.41 0 472.438 0H312.113c-12.976 0-23.531 10.559-23.531 23.531V64.13h-49.129V39.562C239.453 17.75 221.703 0 199.887 0H39.563C17.75 0 0 17.75 0 39.563v448.906C0 501.44 10.559 512 23.531 512h192.387c12.977 0 23.531-10.559 23.531-23.531V375.727h33.098v112.742c0 12.976 10.558 23.531 23.531 23.531h192.39C501.442 512 512 501.441 512 488.469V247.984c0-12.976-10.559-23.53-23.531-23.53zM497 247.984v40.598h-66.77a23.38 23.38 0 0 0 1.61-8.531c0-12.977-10.559-23.535-23.531-23.535-12.977 0-23.536 10.558-23.536 23.535 0 3.008.575 5.883 1.61 8.531H367.71v-24.566c0-4.141-3.36-7.5-7.5-7.5h-48.098c-4.14 0-7.5 3.359-7.5 7.5v24.566h-17.062v-40.598c0-4.707 3.828-8.53 8.531-8.53h192.387c4.703 0 8.531 3.823 8.531 8.53zm-97.227 32.063c0-4.703 3.829-8.531 8.532-8.531 4.707 0 8.535 3.828 8.535 8.53 0 4.708-3.828 8.532-8.535 8.532-4.703 0-8.532-3.824-8.532-8.531zm-80.16 8.535v-17.066h33.098v17.066zm152.825-160.324H447.87v-65.16h33.098v56.629c0 4.703-3.828 8.53-8.531 8.53zm8.53-104.727v24.567h-33.097V15h24.563c4.707 0 8.535 3.828 8.535 8.531zm-177.386 0c0-4.703 3.828-8.531 8.531-8.531h120.758v113.258H312.113c-4.707 0-8.531-3.828-8.531-8.531zM15 335.645h16.547c.285 0 .516.23.516.515v56.113c0 .286-.231.516-.516.516H15zm0-136.274h16.547c.285 0 .516.23.516.516V256c0 .285-.231.516-.516.516H15zM224.453 488.47c0 4.703-3.828 8.531-8.531 8.531H23.532c-4.704 0-8.532-3.828-8.532-8.531v-80.68h16.547c8.558 0 15.516-6.957 15.516-15.516V336.16c0-8.555-6.958-15.515-15.516-15.515H15v-17.063h168.855c4.141 0 7.5-3.36 7.5-7.5s-3.359-7.5-7.5-7.5H15V271.52h16.547c8.558 0 15.516-6.961 15.516-15.516V199.89c0-8.559-6.958-15.52-15.516-15.52H15V39.563C15 26.02 26.02 15 39.563 15h160.324c13.547 0 24.562 11.02 24.562 24.563v249.015h-8.527a7.5 7.5 0 1 0 0 15h8.527v184.89zm15-127.742V79.129h49.129v40.598c0 12.976 10.555 23.53 23.531 23.53h72.66v81.196h-88.691c-12.977 0-23.531 10.555-23.531 23.531v112.743zM488.47 497H296.082c-4.707 0-8.531-3.828-8.531-8.531V303.582H497v184.887c0 4.703-3.828 8.531-8.531 8.531zm0 0" fill="#000000" opacity="1" data-original="#000000" class=""></path><path d="M135.758 64.129H103.69c-8.554 0-15.515 6.96-15.515 15.516v16.03c0 8.56 6.96 15.516 15.515 15.516h32.067c8.554 0 15.515-6.957 15.515-15.515V79.645c0-8.555-6.96-15.516-15.515-15.516zm.515 31.547c0 .285-.23.515-.515.515H103.69a.515.515 0 0 1-.515-.515V79.645c0-.286.23-.516.515-.516h32.067c.285 0 .515.23.515.516zM448.387 271.516h24.047a7.5 7.5 0 1 0 0-15h-24.047c-4.14 0-7.5 3.359-7.5 7.5s3.36 7.5 7.5 7.5zM392.273 328.66c-39.496 0-71.628 32.133-71.628 71.63 0 39.495 32.132 71.628 71.628 71.628 39.497 0 71.63-32.133 71.63-71.629s-32.133-71.629-71.63-71.629zm0 128.258c-31.226 0-56.628-25.402-56.628-56.629 0-31.227 25.406-56.629 56.628-56.629 31.227 0 56.63 25.406 56.63 56.63 0 31.226-25.403 56.628-56.63 56.628zm0 0" fill="#000000" opacity="1" data-original="#000000" class=""></path><path d="M421.453 385a7.497 7.497 0 0 0-5.39 9.133c.515 2 .777 4.07.777 6.156 0 13.547-11.02 24.566-24.567 24.566-13.543 0-24.562-11.02-24.562-24.566 0-13.543 11.02-24.562 24.562-24.562 2.086 0 4.157.257 6.149.773a7.5 7.5 0 0 0 9.133-5.395c1.035-4.007-1.38-8.097-5.39-9.132a39.676 39.676 0 0 0-9.892-1.246c-21.816 0-39.562 17.746-39.562 39.562s17.746 39.566 39.562 39.566c21.817 0 39.567-17.75 39.567-39.566 0-3.348-.422-6.68-1.25-9.898a7.506 7.506 0 0 0-9.137-5.391zM328.145 111.191h80.164a7.5 7.5 0 0 0 7.5-7.5V39.562c0-4.14-3.36-7.5-7.5-7.5h-16.032a7.5 7.5 0 1 0 0 15h8.532v49.13h-65.164v-49.13h24.566a7.5 7.5 0 1 0 0-15h-32.066c-4.141 0-7.5 3.36-7.5 7.5v64.13a7.5 7.5 0 0 0 7.5 7.5zm0 0" fill="#000000" opacity="1" data-original="#000000" class=""></path></g></svg>