<svg xmlns="http://www.w3.org/2000/svg" version="1.1" xmlns:xlink="http://www.w3.org/1999/xlink" width="512" height="512" x="0" y="0" viewBox="0 0 64 64" style="enable-background:new 0 0 512 512" xml:space="preserve" class=""><g><path d="M5 53h4v2H5zM35 53h4v2h-4z" fill="#08437d" opacity="1" data-original="#000000" class=""></path><path d="M62 21H52a1 1 0 0 0-1 1v32h-1.956A1.045 1.045 0 0 1 48 52.957v-4.913a3.047 3.047 0 0 0-3.044-3.043h-2.89a7.008 7.008 0 0 0-1.116-1.464l-1.154-1.154 2.369-.395a1 1 0 0 0 .836-.986v-3a1 1 0 0 0-1-1h-5.946l-1.193-3.582a4.993 4.993 0 0 0-4.743-3.418H13.883A4.993 4.993 0 0 0 9.14 33.42l-1.193 3.582H2a1 1 0 0 0-1 1v3a1 1 0 0 0 .836.986l2.369.395-1.154 1.154a6.989 6.989 0 0 0-2.05 4.95v12.515c0 1.103.897 2 2 2h6c1.103 0 2-.897 2-2v-2h22v2c0 1.103.897 2 2 2h6c1.103 0 2-.897 2-2V48.487c0-.506-.058-1.002-.162-1.485h2.118c.575 0 1.044.468 1.044 1.043v4.913a3.047 3.047 0 0 0 3.044 3.043h1.956v6a1 1 0 0 0 1 1h10a1 1 0 0 0 1-1V22a1 1 0 0 0-1-1zM40.096 45.632c.357.51.606 1.079.751 1.681A3.012 3.012 0 0 1 38.158 49h-4.93a.998.998 0 0 1-.832-.446l-.306-.459 8.006-2.464zM41 39v1.153l-2.943.491L37 39.587v-.586h4zm-29.964-4.949A2.998 2.998 0 0 1 13.883 32h16.234c1.293 0 2.437.824 2.847 2.051L34.613 39H32a1 1 0 1 0 0 2h3.586l3.003 3.004-9.883 3.041a1 1 0 0 0-.706.956h-4a.996.996 0 0 0-.707.293L22 49.587l-1.293-1.293a.997.997 0 0 0-.707-.293h-4a1 1 0 0 0-.706-.956l-9.883-3.041L8.414 41h19.635a1 1 0 1 0 0-2H9.387zm.874 14.044-.306.459a.998.998 0 0 1-.832.445h-4.93a3.012 3.012 0 0 1-2.694-1.698 5.006 5.006 0 0 1 .757-1.67l8.005 2.463zM3 40.152v-1.153h4v.586l-1.057 1.057L3 40.151zm6 20.847H3v-2.184c.314.112.648.184 1 .184h5v2zm4-4 1.201-1.601a1 1 0 0 1 .799-.399h14c.313 0 .612.149.8.4l1.2 1.6H13zm22 4v-2h5c.352 0 .686-.072 1-.184v2.184zm5-4h-6.5l-2.1-2.8a3.014 3.014 0 0 0-2.4-1.2H15a3.01 3.01 0 0 0-2.399 1.2l-2.1 2.8H4c-.552 0-1-.449-1-1v-5.892c.82.567 1.807.892 2.842.892h4.93c1.005 0 1.938-.5 2.496-1.335l.637-.955.095.029v.261a1 1 0 0 0 1 1h4.586l1.707 1.707a.997.997 0 0 0 1.414 0l1.707-1.707H29a1 1 0 0 0 1-1v-.261l.095-.029.637.955A2.996 2.996 0 0 0 33.228 51h4.93A4.999 4.999 0 0 0 41 50.108V56c0 .551-.448 1-1 1zm21 4h-8v-5h1.956A3.047 3.047 0 0 0 58 52.956v-9.957h1a1 1 0 0 0 1-1v-4c0-1.654-1.346-3-3-3s-3 1.346-3 3v4a1 1 0 0 0 1 1h1v9.957c0 .575-.469 1.043-1.044 1.043H53V23h8v38zm-5-20v-3a1.001 1.001 0 0 1 2 0v3z" fill="#08437d" opacity="1" data-original="#000000" class=""></path><path d="M28.259 27.671A1 1 0 0 0 29 28h4c.414 0 .785-.255.934-.641l5-13A1.002 1.002 0 0 0 38.001 13h-1.82l1.806-10.835A1 1 0 0 0 37 1h-5c-.369 0-.709.204-.883.529l-8 15a.999.999 0 0 0 .882 1.47h4.895l-.89 8.9c-.028.281.064.561.254.771zM32.314 26h-.857l4.231-11h.857l-4.23 11zm2.534-23h.972l-1.666 10h-.972zm-9.18 13 6.933-13h.22l-1.806 10.835A1 1 0 0 0 32.002 15h1.544l-3.16 8.216.611-6.116a1.001 1.001 0 0 0-.995-1.1h-4.333zM55 34h4a1 1 0 1 0 0-2h-4a1 1 0 1 0 0 2zM55 31h4a1 1 0 1 0 0-2h-4a1 1 0 1 0 0 2zM55 28h4a1 1 0 1 0 0-2h-4a1 1 0 1 0 0 2z" fill="#08437d" opacity="1" data-original="#000000" class=""></path></g></svg>