<svg xmlns="http://www.w3.org/2000/svg" version="1.1" xmlns:xlink="http://www.w3.org/1999/xlink" width="512" height="512" x="0" y="0" viewBox="0 0 512 512" style="enable-background:new 0 0 512 512" xml:space="preserve" class=""><g><path fill="#f5f5f7" d="M465.642 512H46.358V177.191L256 74.688l209.642 102.503z" opacity="1" data-original="#f5f5f7" class=""></path><path fill="#e5e1e5" d="m256 74.688-15.453 7.555 194.189 94.948v126.895c0 85.84-47.163 164.739-122.772 205.383L307.256 512h158.385V177.191zM256 504.274a7.725 7.725 0 0 1-7.726-7.726v-87.369a7.726 7.726 0 1 1 15.452 0v87.369a7.726 7.726 0 0 1-7.726 7.726z" opacity="1" data-original="#e5e1e5"></path><path fill="#e5e1e5" d="M279.179 308.117a7.725 7.725 0 0 1-7.726-7.726v-34.489a7.726 7.726 0 1 1 15.452 0v34.489a7.726 7.726 0 0 1-7.726 7.726zM232.821 308.117a7.725 7.725 0 0 1-7.726-7.726v-34.489a7.726 7.726 0 1 1 15.452 0v34.489a7.726 7.726 0 0 1-7.726 7.726z" opacity="1" data-original="#e5e1e5"></path><path fill="#60b7ff" d="M256 409.178c-28.308 0-51.256-22.948-51.256-51.256v-50.559a6.974 6.974 0 0 1 6.974-6.974h88.565a6.974 6.974 0 0 1 6.974 6.974v50.559c-.001 28.308-22.949 51.256-51.257 51.256z" opacity="1" data-original="#60b7ff" class=""></path><path fill="#26a6fe" d="M300.282 300.39h-30.905a6.974 6.974 0 0 1 6.974 6.973v50.559c0 22.922-15.048 42.324-35.803 48.88a51.234 51.234 0 0 0 15.453 2.376c28.308 0 51.256-22.948 51.256-51.256v-50.559a6.975 6.975 0 0 0-6.975-6.973z" opacity="1" data-original="#26a6fe"></path><path fill="#08437d" d="M504.609 221.01 256 100.958 7.391 221.01C3.971 222.662 0 220.17 0 216.372v-46.25a5.15 5.15 0 0 1 2.911-4.638L256 43.268l253.089 122.216a5.151 5.151 0 0 1 2.911 4.638v46.25c0 3.798-3.971 6.29-7.391 4.638z" opacity="1" data-original="#d77f4a" class=""></path><g fill="#c86d36"><path d="M509.089 165.483 256 43.268l-15.453 7.462 221.707 107.061c10.362 5.004 18.84 18.513 18.84 30.02v21.844l23.515 11.355c3.42 1.652 7.391-.84 7.391-4.638v-46.25a5.152 5.152 0 0 0-2.911-4.639zM225.095 90.875l-55.06-6.014-39.871 19.173a45.288 45.288 0 0 1-25.643 44.393L0 198.316v18.057c0 3.798 3.971 6.29 7.391 4.638L240.547 108.42z" fill="#08437d" opacity="1" data-original="#c86d36" class=""></path></g><path fill="#9b8e99" d="M505.819 481.095H6.181A6.18 6.18 0 0 0 0 487.276v18.543A6.18 6.18 0 0 0 6.181 512h499.638a6.18 6.18 0 0 0 6.181-6.181v-18.543a6.18 6.18 0 0 0-6.181-6.181z" opacity="1" data-original="#9b8e99" class=""></path><path fill="#918291" d="M505.819 481.095h-30.905a6.181 6.181 0 0 1 6.181 6.181v18.543a6.181 6.181 0 0 1-6.181 6.181h30.905a6.181 6.181 0 0 0 6.181-6.181v-18.543a6.18 6.18 0 0 0-6.181-6.181z" opacity="1" data-original="#918291" class=""></path><circle cx="256" cy="109.087" r="109.087" fill="#fff661" transform="rotate(-45 255.999 109.142)" opacity="1" data-original="#fedf30" class=""></circle><path fill="#fff669" d="M288.658 4.975c27.566 19.798 45.524 52.13 45.524 88.659 0 60.247-48.84 109.087-109.088 109.087a109.051 109.051 0 0 1-32.658-4.975c17.898 12.855 39.846 20.428 63.564 20.428 60.247 0 109.088-48.84 109.088-109.087-.001-48.87-32.137-90.231-76.43-104.112z" opacity="1" data-original="#fac600" class=""></path><path fill="#fec62a" d="M276.043 34.976c6.171-.05 10.285 5.611 8.218 10.948-5.493 14.182-11.573 28.185-17.502 42.191-.359.848-.102 1.202.601 1.607 11.101 6.409 22.178 12.86 33.29 19.25 5.474 3.148 6.346 9.554 1.778 13.887-20.126 19.092-40.284 38.151-60.435 57.217-3.38 3.198-6.708 3.924-10.173 2.246-3.774-1.827-5.626-6.122-4.086-10.104 2.102-5.433 4.406-10.789 6.643-16.169 3.609-8.679 7.22-17.358 10.877-26.018.373-.884.06-1.198-.62-1.589-11.239-6.464-22.59-12.797-33.689-19.497-5.167-3.119-5.777-9.48-1.373-13.653 20.139-19.081 40.336-38.101 60.435-57.224 1.854-1.763 3.888-3.022 6.036-3.092z" opacity="1" data-original="#fea95c" class=""></path><path fill="#fec62a" d="M300.649 108.973c-11.112-6.39-22.188-12.842-33.289-19.25-.702-.405-.96-.759-.601-1.607 5.929-14.007 12.009-28.01 17.501-42.191 2.067-5.337-2.048-10.998-8.218-10.948-2.148.07-4.182 1.329-6.036 3.093-7.243 6.891-14.507 13.761-21.769 20.634-.936 3.042-6.627 14.836-9.785 23.048a9.357 9.357 0 0 0 4.047 11.465c9.08 5.255 18.15 10.526 27.245 15.756 5.474 3.148 6.346 9.554 1.778 13.887-12.826 12.167-25.672 24.313-38.514 36.463-1.796 4.284-3.599 8.566-5.275 12.896-1.54 3.981.312 8.276 4.086 10.104 3.465 1.678 6.793.952 10.173-2.246 20.15-19.066 40.309-38.125 60.435-57.217 4.568-4.333 3.697-10.739-1.778-13.887z" opacity="1" data-original="#fe9738" class=""></path></g></svg>