<svg xmlns="http://www.w3.org/2000/svg" version="1.1" xmlns:xlink="http://www.w3.org/1999/xlink" width="512" height="512" x="0" y="0" viewBox="0 0 256 256" style="enable-background:new 0 0 512 512" xml:space="preserve" class=""><g><path fill="#08437d" d="M228.221 135.888c-9.09 92.48-111.91 123.707-171.65 70.717l8.31-9.66c51.14 45.42 140.65 21.424 150.57-61.057z" opacity="1" data-original="#72c1e8"></path><path fill="#e11a2e" d="M233.681 124.715v6c0 2.86-2.31 5.18-5.17 5.18 0 0-13 .01-13.06-.01a5.176 5.176 0 0 1-5.07-5.17v-6c.31.03.63.05.94.05h21.43c.31 0 .63-.02.93-.05z" opacity="1" data-original="#f2e1d6" class=""></path><path fill="#6b6b6b" d="M230.487 64.828v19.067h9.187V64.828a4.601 4.601 0 0 0-4.598-4.598c-2.569-.001-4.589 2.102-4.589 4.598zM204.397 64.828v19.067h9.187V64.828a4.593 4.593 0 0 0-4.588-4.598 4.603 4.603 0 0 0-4.599 4.598z" opacity="1" data-original="#afafaf" class=""></path><path fill="#08437d" d="M245.771 94.645v17.1c0 6.83-5.3 12.51-12.09 12.97-.3.03-.62.05-.93.05h-21.43c-.31 0-.63-.02-.94-.05-6.79-.46-12.09-6.14-12.09-12.97v-17.1z" opacity="1" data-original="#72c1e8"></path><path fill="#08437d" d="M225.147 118.264a2.5 2.5 0 0 1-.003-5l7.819-.024c.613-.043 1.171-.568 1.291-1.258l.021-8.34a2.5 2.5 0 1 1 5 0l-.053 8.923c-.404 3.074-2.92 5.456-5.981 5.666l-8.092.033h-.002zm-10.007-.001h-.005c-4.003-.009-4.192-.023-4.33-.034a2.5 2.5 0 0 1-2.297-2.688c.107-1.376 1.31-2.417 2.688-2.297h.001c.041 0 .621.012 3.948.019a2.5 2.5 0 0 1-.005 5z" opacity="1" data-original="#c5e5ff" class=""></path><path fill="#e11a2e" d="M192 89.27a5.375 5.375 0 0 0 5.375 5.375h49.32a5.375 5.375 0 0 0 0-10.75h-49.32A5.376 5.376 0 0 0 192 89.27z" opacity="1" data-original="#f2e1d6" class=""></path><path fill="#08437d" d="M27.779 120.124c9.09-92.478 111.909-123.712 171.65-70.721l-8.31 9.66c-51.141-45.421-140.65-21.418-150.57 61.061z" opacity="1" data-original="#72c1e8"></path><path fill="#e11a2e" d="M22.319 131.294v-6c0-2.86 2.31-5.18 5.17-5.18.064 0 12.998-.005 13.06.01 2.8.05 5.07 2.35 5.07 5.17v6c-.31-.04-.63-.05-.94-.05h-21.43c-.32.001-.63.01-.93.05z" opacity="1" data-original="#f2e1d6" class=""></path><path fill="#6b6b6b" d="M25.513 191.181v-19.067h-9.187v19.067a4.601 4.601 0 0 0 4.598 4.598c2.569 0 4.589-2.102 4.589-4.598zM51.603 191.181v-19.067h-9.187v19.067a4.593 4.593 0 0 0 4.588 4.598 4.603 4.603 0 0 0 4.599-4.598z" opacity="1" data-original="#afafaf" class=""></path><path fill="#08437d" d="M10.224 161.367v-17.099c0-6.839 5.303-12.51 12.091-12.974.307-.029.624-.048.931-.048h21.437c.307 0 .624.019.931.048 6.794.464 12.091 6.141 12.091 12.974v17.099z" opacity="1" data-original="#72c1e8"></path><path fill="#08437d" d="M19.224 154.867a2.5 2.5 0 0 1-2.5-2.5c-.003-2.831-.029-8.3.054-8.929.404-3.068 2.919-5.45 5.98-5.66.111-.009.312-.024 8.093-.033h.003a2.5 2.5 0 0 1 .003 5c-5.373.006-7.57.018-7.82.024-.614.044-1.172.569-1.292 1.258-.036 1.039-.022 7.311-.021 8.34a2.5 2.5 0 0 1-2.5 2.5zm25.581-12.102c-.014-.009-.584-.012-3.95-.019a2.5 2.5 0 0 1 .005-5h.005c4.002.009 4.191.023 4.33.034a2.5 2.5 0 0 1 2.297 2.688c-.11 1.403-1.353 2.414-2.687 2.297z" opacity="1" data-original="#c5e5ff" class=""></path><path fill="#e11a2e" d="M64 166.738a5.375 5.375 0 0 0-5.375-5.375H9.305a5.375 5.375 0 0 0 0 10.75h49.32A5.374 5.374 0 0 0 64 166.738z" opacity="1" data-original="#f2e1d6" class=""></path><path d="M246.695 81.395h-4.522V64.828c0-3.914-3.185-7.099-7.099-7.099-3.908 0-7.088 3.185-7.088 7.099v16.566h-11.902V64.828c0-3.914-3.18-7.099-7.088-7.099-3.914 0-7.099 3.185-7.099 7.099v16.566h-4.522c-4.342 0-7.875 3.533-7.875 7.876 0 3.802 2.708 6.982 6.295 7.715v14.755c0 7.397 5.199 13.58 12.086 15.121v3.852c0 3.182 1.982 5.936 4.772 7.089-11.129 79.422-97.339 100.591-146.112 57.272-.99-.881-2.65-.78-3.53.21a2.488 2.488 0 0 0 .21 3.529l.01.011c51.904 46.078 142.908 22.728 154.418-60.432l7.782.001c-2.62 21.78-10.56 40.67-23.6 56.141-.928 1.098-.714 2.665.3 3.52 1.01.86 2.66.71 3.52-.3 13.024-15.438 22.078-35.417 24.83-59.627 3.276-.874 5.7-3.862 5.7-7.414v-3.855c6.903-1.554 12.095-7.712 12.095-15.117V96.986c3.587-.733 6.295-3.914 6.295-7.715-.001-4.343-3.534-7.876-7.876-7.876zm-13.709-16.567c0-1.157.937-2.099 2.088-2.099 1.157 0 2.099.941 2.099 2.099v16.566h-4.187zm-26.088 0c0-1.157.941-2.099 2.099-2.099 1.151 0 2.088.941 2.088 2.099v16.566h-4.187zm24.283 65.886a2.677 2.677 0 0 1-2.67 2.68l-13.015-.01a2.679 2.679 0 0 1-2.615-2.67v-3.45h18.3zm1.573-8.451c-30.31 0-18.754-.001-21.484-.001-5.67-.017-10.475-4.637-10.475-10.52V97.146h42.48v14.596c0 5.886-4.821 10.521-10.521 10.521zm13.941-30.117c-57.847-.005-48.084 0-49.32 0a2.879 2.879 0 0 1-2.875-2.875 2.879 2.879 0 0 1 2.875-2.876h49.32a2.879 2.879 0 0 1 2.875 2.876 2.88 2.88 0 0 1-2.875 2.875z" fill="#000000" opacity="1" data-original="#000000" class=""></path><path d="M198.857 205.245c.979-.96 1.01-2.551.05-3.53-.93-.96-2.58-.99-3.54-.061a2.508 2.508 0 0 0-.05 3.54 2.496 2.496 0 0 0 3.54.051zM191.157 212.005c1.07-.86 1.26-2.43.4-3.51-.83-1.051-2.46-1.24-3.511-.41-37.091 29.425-92.317 29.737-129.629-3.351-1-.88-2.65-.779-3.53.21a2.51 2.51 0 0 0 .21 3.53c39.124 34.737 97.074 34.448 136.06 3.531zM13.827 174.613v16.567c0 3.914 3.184 7.099 7.098 7.099 3.909 0 7.088-3.185 7.088-7.099v-16.567h11.902v16.567c0 3.914 3.18 7.099 7.088 7.099 3.914 0 7.098-3.185 7.098-7.099v-16.567h4.522c4.342 0 7.875-3.532 7.875-7.875 0-3.802-2.707-6.982-6.295-7.715v-14.755c0-7.427-5.227-13.587-12.086-15.121v-3.853c0-3.18-1.981-5.934-4.769-7.088 11.119-79.47 97.329-100.574 146.112-57.271.98.88 2.64.78 3.521-.21.92-1.03.83-2.609-.19-3.52l-.01-.011c-52.277-46.412-143.033-22.171-154.428 60.42h-7.792c2.63-21.78 10.57-40.67 23.6-56.14.89-1.05.76-2.63-.3-3.52-1.01-.86-2.67-.721-3.52.3-14.48 17.188-22.347 37.856-24.819 59.626-3.278.873-5.703 3.861-5.703 7.414v3.856c-6.898 1.552-12.094 7.707-12.094 15.117v14.755c-3.588.733-6.295 3.914-6.295 7.715 0 4.343 3.533 7.875 7.875 7.875h4.522zm9.187 16.568a2.096 2.096 0 0 1-2.088 2.099 2.1 2.1 0 0 1-2.098-2.099v-16.567h4.187v16.567zm26.088 0a2.101 2.101 0 0 1-2.098 2.099 2.096 2.096 0 0 1-2.088-2.099v-16.567h4.187v16.567zm-24.283-65.887a2.678 2.678 0 0 1 2.67-2.68l13.024.011a2.68 2.68 0 0 1 2.607 2.669v3.45h-18.3v-3.45zm-2.274 8.489c.649-.06-.913-.037 22.139-.037 5.646 0 10.521 4.579 10.521 10.521v14.596h-42.48v-14.596c-.001-5.57 4.328-10.108 9.82-10.484zM6.43 166.738a2.879 2.879 0 0 1 2.875-2.875h.891c.01 0 .019.003.029.003 52.041 0 48.048-.003 48.4-.003 1.585 0 2.875 1.29 2.875 2.875s-1.29 2.875-2.875 2.875H9.305a2.878 2.878 0 0 1-2.875-2.875z" fill="#000000" opacity="1" data-original="#000000" class=""></path><path d="M64.622 47.524c.83 1.04 2.46 1.23 3.51.4 37.453-29.732 92.635-29.465 129.641 3.35a2.49 2.49 0 0 0 3.52-.21c.926-1.028.823-2.612-.2-3.529-39.267-34.831-97.164-34.383-136.07-3.53a2.507 2.507 0 0 0-.401 3.519zM57.332 50.765c-.01 0-.01 0-.01.01-.987.946-1 2.54-.05 3.53a2.525 2.525 0 0 0 3.53.061c0-.011 0-.011.01-.011.99-.96 1.01-2.55.05-3.54-.929-.961-2.579-.98-3.53-.05z" fill="#000000" opacity="1" data-original="#000000" class=""></path><path fill="#f0c020" d="m129.935 116.077 14.215-49.464c1.508-5.247-5.513-8.547-8.575-4.027l-46.121 68.102c-2.158 3.187.133 7.479 3.983 7.479l30.868-.001-14.212 49.47c-1.507 5.247 5.514 8.546 8.576 4.026l46.122-68.107c2.158-3.187-.133-7.479-3.982-7.479z" opacity="1" data-original="#f0c020" class=""></path><path d="M148.162 143.654a2.488 2.488 0 0 0 .67 3.471c1.1.75 2.72.43 3.47-.67l14.561-21.5c3.258-4.811-.18-11.351-6.061-11.38h-27.55l13.3-46.271c2.33-7.987-8.504-12.972-13.05-6.12l-46.12 68.101c-3.284 4.802.206 11.38 6.05 11.38h27.55l-13.29 46.279c-2.37 8.015 8.505 12.961 13.04 6.12l20.351-30.05c.77-1.14.47-2.7-.67-3.47-1.101-.75-2.721-.43-3.471.67l-20.35 30.04c-1.548 2.215-4.777.574-4.1-1.93l14.21-49.471c.466-1.591-.738-3.189-2.4-3.189h-30.87c-1.857 0-2.93-2.055-1.91-3.57l46.12-68.11c1.609-2.234 4.842-.465 4.101 1.94l-14.21 49.46c-.455 1.545.705 3.19 2.399 3.19h30.87c1.814 0 2.956 2.013 1.92 3.579z" fill="#000000" opacity="1" data-original="#000000" class=""></path><path d="M146.021 151.264c-1.109-.75-2.729-.43-3.47.67-.77 1.141-.47 2.7.67 3.47a2.5 2.5 0 0 0 2.8-4.14z" fill="#000000" opacity="1" data-original="#000000" class=""></path></g></svg>