<svg xmlns="http://www.w3.org/2000/svg" version="1.1" xmlns:xlink="http://www.w3.org/1999/xlink" width="512" height="512" x="0" y="0" viewBox="0 0 512 512" style="enable-background:new 0 0 512 512" xml:space="preserve" class=""><g><g fill-rule="evenodd" clip-rule="evenodd"><path fill="#837683" d="M162.971 241.193H360.05c5.5 0 10 4.5 10 10v148.479c0 5.5-4.5 10-10 10H162.971c-5.5 0-10-4.499-10-10v-148.48c0-5.5 4.5-9.999 10-9.999z" opacity="1" data-original="#837683" class=""></path><path fill="#685e68" d="M160.971 241.193H362.05c4.4 0 8 3.6 8 8v18.032c0 4.4-3.6 8-8 8H160.971c-4.4 0-8-3.6-8-8v-18.032c0-4.401 3.6-8 8-8z" opacity="1" data-original="#685e68"></path><path fill="#a79ba7" d="M244.494 275.224v-44.992c0-4.4 3.6-8 8-8h18.032c4.4 0 8 3.6 8 8v44.992z" opacity="1" data-original="#a79ba7"></path><path fill="#9facba" d="m236.061 362.895 32.119-50.662a7.993 7.993 0 0 1 11.808-1.909l46.175 33.765-9.438 12.875-39.612-28.966-27.553 43.459z" opacity="1" data-original="#9facba"></path><circle cx="242.811" cy="367.176" r="18.5" fill="#fec62a" opacity="1" data-original="#ffe177" class=""></circle><path fill="#fec62a" d="M242.811 348.676c10.217 0 18.5 8.283 18.5 18.5s-8.283 18.5-18.5 18.5c-1.035 0-2.049-.087-3.037-.25 8.772-1.449 15.463-9.068 15.463-18.25 0-9.183-6.691-16.801-15.463-18.25.988-.164 2.002-.25 3.037-.25z" opacity="1" data-original="#ffd064" class=""></path><circle cx="274.93" cy="316.514" r="18.5" fill="#fec62a" transform="rotate(-45 274.893 316.588)" opacity="1" data-original="#ffe177" class=""></circle><path fill="#fec62a" d="M274.93 298.014c10.217 0 18.5 8.283 18.5 18.5s-8.283 18.5-18.5 18.5c-1.035 0-2.049-.087-3.037-.25 8.772-1.449 15.463-9.068 15.463-18.25s-6.691-16.801-15.463-18.25c.988-.163 2.002-.25 3.037-.25z" opacity="1" data-original="#ffd064" class=""></path><circle cx="321.444" cy="350.527" r="18.5" fill="#fec62a" transform="rotate(-13.34 320.734 350.417)" opacity="1" data-original="#ffe177" class=""></circle><path fill="#fec62a" d="M321.444 332.028c10.217 0 18.5 8.283 18.5 18.5s-8.283 18.5-18.5 18.5c-1.035 0-2.049-.087-3.037-.25 8.772-1.449 15.463-9.068 15.463-18.25s-6.691-16.801-15.463-18.25c.988-.164 2.002-.25 3.037-.25z" opacity="1" data-original="#ffd064" class=""></path><path fill="#fec62a" d="M429.472 28.412a65.462 65.462 0 0 1 19.158 7.942l12.449-5.529 14.672 14.672-5.527 12.445a65.42 65.42 0 0 1 7.944 19.163l12.701 4.889v20.749l-12.704 4.89a65.435 65.435 0 0 1-7.942 19.158l5.529 12.449-14.672 14.672-12.445-5.527a65.412 65.412 0 0 1-19.163 7.943l-4.889 12.701h-20.749l-4.89-12.704a65.435 65.435 0 0 1-19.158-7.942l-12.449 5.529-14.672-14.672 5.528-12.445a65.404 65.404 0 0 1-7.944-19.163l-12.701-4.889V81.994l12.702-4.89a65.405 65.405 0 0 1 7.943-19.159l-5.528-12.448 14.672-14.672 12.449 5.529a65.397 65.397 0 0 1 19.158-7.942l4.89-12.704h20.749z" opacity="1" data-original="#ffe177" class=""></path><path fill="#fec62a" d="m379.786 148.383-12.449 5.529-1.917-1.917 11.672-5.184a64.74 64.74 0 0 0 2.694 1.572zm49.686-119.971a65.462 65.462 0 0 1 19.158 7.942l-3.539 1.571c-5.924-3.648-15.083-7.903-21.852-9.514l-4.89-12.703h6.233zm19.162 119.973a65.412 65.412 0 0 1-19.163 7.943l-4.889 12.701h-6.232l4.889-12.701c6.77-1.611 15.931-5.866 21.856-9.515zM365.42 32.743l1.917-1.917 12.449 5.529a65.854 65.854 0 0 0-2.694 1.571zm91.343 0 4.316-1.917 14.672 14.672-5.527 12.445a65.42 65.42 0 0 1 7.944 19.163l12.701 4.889v20.749l-12.704 4.89a65.435 65.435 0 0 1-7.942 19.158l5.529 12.449-14.672 14.672-4.316-1.917 12.755-12.755-5.529-12.449a65.424 65.424 0 0 0 7.942-19.158l12.704-4.89v-20.75l-12.701-4.889a65.415 65.415 0 0 0-7.944-19.163l5.528-12.445z" opacity="1" data-original="#ffd064" class=""></path><circle cx="414.208" cy="92.369" r="36.185" fill="#eceff1" transform="rotate(-45 414.222 92.451)" opacity="1" data-original="#eceff1"></circle><path fill="#d1d1d6" d="M414.207 56.184c-19.985 0-36.184 16.199-36.184 36.185 0 19.985 16.199 36.184 36.184 36.184.969 0 1.929-.039 2.878-.114-18.64-1.467-33.306-17.054-33.306-36.07 0-19.017 14.667-34.604 33.306-36.071a36.527 36.527 0 0 0-2.878-.114z" opacity="1" data-original="#d1d1d6"></path><path fill="#08437d" d="M477.742 444.862h-27.287V244.265l-9.365-20.367 9.365-40.672 27.287.001 9.365 40.671-9.365 20.368z" opacity="1" data-original="#d8ecfe" class=""></path><path fill="#08437d" d="M477.742 444.862h-10.604V244.265l9.365-20.367-9.365-40.672h10.604l9.365 40.672-9.365 20.367z" opacity="1" data-original="#c4e2ff" class=""></path><path fill="#f1ba84" d="M486.677 496.292H441.52a4.254 4.254 0 0 1-4.241-4.242V383.894c0-4.583 3.749-8.333 8.333-8.333h36.975c4.583 0 8.332 3.749 8.332 8.333v108.157a4.254 4.254 0 0 1-4.242 4.241z" opacity="1" data-original="#f1ba84" class=""></path><path fill="#e3a76f" d="M486.677 496.292H441.52a4.253 4.253 0 0 1-4.241-4.241v-6.363h38.795a4.253 4.253 0 0 0 4.241-4.241V375.561h2.271c4.583 0 8.332 3.749 8.332 8.332V492.05a4.252 4.252 0 0 1-4.241 4.242z" opacity="1" data-original="#e3a76f" class=""></path><path fill="#9facba" d="M355.155 267.353c-14.941-6.278-25.434-21.049-25.434-38.271 0-16.173 9.254-30.184 22.754-37.03l.001 41.72 18.74 10.82 18.74-10.82.001-41.72c13.5 6.846 22.754 20.857 22.755 37.03 0 17.223-10.493 31.994-25.435 38.271v153.059c14.942 6.278 25.434 21.049 25.434 38.271.001 16.174-9.253 30.184-22.754 37.03v-41.72l-18.74-10.82-18.74 10.82v41.719c-13.5-6.846-22.754-20.856-22.754-37.03-.001-17.222 10.492-31.993 25.434-38.271V267.353z" opacity="1" data-original="#9facba"></path><path fill="#8d9ca8" d="M347.034 262.804c-.157-.113-.314-.226-.469-.341.156.068.312.136.469.202zm-2.68-65.348a41.57 41.57 0 0 1 8.121-5.405l.001 41.72 10.62 6.132h-.001l-18.74-10.82zm45.602-4.688v-.716c13.5 6.847 22.754 20.857 22.754 37.03 0 17.222-10.493 31.994-25.434 38.271l.001 153.056a41.431 41.431 0 0 0-8.121-4.55V262.663c14.941-6.277 25.434-21.048 25.434-38.271-.001-12.67-5.681-24.013-14.634-31.624zm-2.212 227.846c14.691 6.388 24.965 21.028 24.965 38.069 0 16.174-9.254 30.184-22.754 37.029V485.62c8.953-7.61 14.634-18.954 14.633-31.626.001-13.685-6.625-25.822-16.844-33.38zm-16.529 22.559-18.74 10.82v41.719a41.565 41.565 0 0 1-8.121-5.404v-41.004l18.74-10.82z" opacity="1" data-original="#8d9ca8"></path><path fill="#08437d" d="m33.079 495.711 239.783-.001a10.258 10.258 0 0 0 10.087-12.349c-12.328-60.504-65.834-106.033-129.978-106.033-64.146 0-117.651 45.53-129.979 106.034a10.259 10.259 0 0 0 10.087 12.349z" opacity="1" data-original="#8ac9fe" class=""></path><path fill="#08437d" d="M249.418 495.71h23.444a10.258 10.258 0 0 0 10.087-12.348c-12.328-60.505-65.834-106.034-129.978-106.034-3.95 0-7.86.175-11.722.513 58.855 5.154 106.688 48.742 118.256 105.521a10.257 10.257 0 0 1-10.087 12.348z" opacity="1" data-original="#60b7ff" class=""></path><circle cx="152.972" cy="300.256" r="67.07" fill="#f6dccd" opacity="1" data-original="#f6dccd" class=""></circle><path fill="#f1cbbc" d="M152.972 233.187c37.041 0 67.07 30.028 67.07 67.07s-30.029 67.07-67.07 67.07c-3.171 0-6.29-.226-9.344-.651 32.618-4.548 57.726-32.549 57.726-66.419s-25.108-61.871-57.726-66.419a67.58 67.58 0 0 1 9.344-.651z" opacity="1" data-original="#f1cbbc" class=""></path><path fill="#fec62a" d="M80.634 308.045h144.675c5.332 0 9.695-4.362 9.695-9.694s-4.363-9.695-9.695-9.695h-1.955c.141-1.82.215-3.658.215-5.514 0-31.404-20.508-58.011-48.859-67.178 1.065-11.111-12.589-14.597-21.739-14.593-9.15-.004-22.804 3.482-21.739 14.593-28.352 9.167-48.859 35.774-48.859 67.178 0 1.856.074 3.695.215 5.514h-1.955c-5.332 0-9.695 4.362-9.695 9.695.001 5.332 4.364 9.694 9.696 9.694z" opacity="1" data-original="#ffe177" class=""></path><path fill="#fec62a" d="M215.102 308.046h10.208c5.332 0 9.695-4.362 9.695-9.695 0-5.332-4.363-9.695-9.695-9.695h-1.955c.141-1.82.215-3.658.215-5.514 0-31.404-20.508-58.011-48.859-67.178 1.065-11.11-12.589-14.597-21.739-14.593a38.972 38.972 0 0 0-5.106.34c8.366 1.107 17.511 5.084 16.632 14.253 28.352 9.167 48.859 35.774 48.859 67.178 0 1.856-.074 3.695-.215 5.514h1.955c5.332 0 9.695 4.362 9.695 9.695-.001 5.33-4.361 9.692-9.69 9.695z" opacity="1" data-original="#ffd064" class=""></path><path fill="#fec62a" d="M146.469 253.587h13.006a11.74 11.74 0 0 0 11.693-10.273l3.492-26.891c1.492-11.492-12.434-14.422-21.688-15.052-9.254.63-23.18 3.56-21.688 15.052l3.492 26.891a11.738 11.738 0 0 0 11.693 10.273z" opacity="1" data-original="#ffd064" class=""></path><path fill="#fec62a" d="M146.469 253.587h13.006a11.738 11.738 0 0 0 11.693-10.273l3.492-26.891c.705-5.426-2.029-8.943-6.085-11.211.321 1.267.406 2.676.202 4.246l-3.491 26.891a11.74 11.74 0 0 1-11.693 10.273h-13.006c-1.929 0-3.754-.457-5.366-1.276a11.73 11.73 0 0 0 11.248 8.241zM80.634 288.656c-5.333 0-9.695 4.362-9.695 9.695 0 5.332 4.362 9.695 9.695 9.695h144.675c5.332 0 9.695-4.362 9.695-9.695 0-5.332-4.363-9.695-9.695-9.695H80.634z" opacity="1" data-original="#ffc338" class=""></path><path fill="#fec62a" d="M70.939 298.351c0 5.332 4.362 9.695 9.695 9.695h144.675c5.332 0 9.695-4.362 9.695-9.695z" opacity="1" data-original="#ffd064" class=""></path><path fill="#fec62a" d="m138.507 30.18 63.383 109.783c5.211 9.026 5.211 19.919 0 28.945s-14.644 14.473-25.067 14.473H50.056c-10.422 0-19.856-5.446-25.066-14.473-5.211-9.026-5.211-19.919 0-28.945L88.373 30.18c5.211-9.026 14.644-14.472 25.067-14.472 10.422 0 19.856 5.446 25.067 14.472z" opacity="1" data-original="#ffe177" class=""></path><path fill="#fec62a" d="m138.507 30.18 63.383 109.783c5.211 9.026 5.211 19.919 0 28.945s-14.644 14.473-25.067 14.473h-16.592c10.422 0 19.856-5.446 25.067-14.473 5.211-9.026 5.211-19.919 0-28.945L121.915 30.18c-3.78-6.547-9.782-11.21-16.771-13.278a29.204 29.204 0 0 1 8.296-1.194c10.422 0 19.856 5.446 25.067 14.472z" opacity="1" data-original="#ffc338" class=""></path><path fill="#000000" d="m120.3 53.351-2.392 41.074h33.696l-47.563 58.837L108.972 111H75.277z" opacity="1" data-original="#fe646f" class=""></path><path fill="#000000" d="m120.3 53.351-.645 11.089-31.198 39.945h33.696l-3.61 30.937-14.502 17.94L108.972 111H75.277z" opacity="1" data-original="#fd4755" class=""></path></g></g></svg>