<svg xmlns="http://www.w3.org/2000/svg" version="1.1" xmlns:xlink="http://www.w3.org/1999/xlink" width="512" height="512" x="0" y="0" viewBox="0 0 512 512" style="enable-background:new 0 0 512 512" xml:space="preserve" class=""><g><path fill="#b6c4cf" d="M392.5 401.5h-268l-4-1c-5.523 0-10-4.477-10-10v-27l291 1 1 13v14c0 5.523-4.477 10-10 10z" opacity="1" data-original="#b6c4cf" class=""></path><path fill="#9facba" d="m402.5 362.5-146.5-3-146.5 3v29c0 5.523 4.477 10 10 10h5v-21a3 3 0 0 1 3-3h275z" opacity="1" data-original="#9facba"></path><g fill="#b2e5fb"><path d="M242 498.5v-135h28l1 14v112l-1 9a5 5 0 0 1-5 5h-18a5 5 0 0 1-5-5zM499.5 474.5H344a3 3 0 0 1-3-3v-94l-1-14h-28v111c0 16.569 12.431 29 29 29h157.5c2.761 0 5-1.239 5-4l1-10v-10a5 5 0 0 0-5-5zM13.5 503.5H170c11.102 0 21.796-5.031 26.984-13.996A29.863 29.863 0 0 0 201 474.5v-97l-1-14h-28v108c0 1.657-2.343 3-4 3H22.802l-9.302 1a5 5 0 0 0-5 5v18a5 5 0 0 0 5 5z" fill="#08437d" opacity="1" data-original="#b2e5fb" class=""></path></g><path fill="#08437d" d="M271 377.5v-15l-15-2-15 2v137a5 5 0 0 0 5 5h20a5 5 0 0 0 5-5v-10h-12a3 3 0 0 1-3-3v-106a3 3 0 0 1 3-3zM342.92 489.5c-9.345 0-16.92-7.575-16.92-16.92V380.5a3 3 0 0 1 3-3h12v-15l-15-2-15 2v112c0 16.569 13.431 30 30 30h158.5a5 5 0 0 0 5-5v-10z" opacity="1" data-original="#98e0f9" class=""></path><g fill="#98e0f9"><path d="m201 362.5-14.964-2-15.036 2v109a2.993 2.993 0 0 1-2.525 2.952c9.839 0 17.809-7.989 17.785-17.828l-.182-76.117a3 3 0 0 1 3-3.007H201zM22.562 486.44l.241-11.94H12.5a5 5 0 0 0-5 5v20a5 5 0 0 0 5 5H171c11.102 0 20.789-6.036 25.977-15H25.561a3 3 0 0 1-2.999-3.06z" fill="#08437d" opacity="1" data-original="#98e0f9" class=""></path></g><path fill="#f8f7f7" d="M427.5 361.5h-343c-16.569 0-30-13.431-30-30v-293c0-11.102 5.031-21.796 13.996-26.984A29.86 29.86 0 0 1 83.5 7.5h345c16.569 0 30 13.431 30 30v295a29.86 29.86 0 0 1-4.016 15.004c-5.188 8.965-15.882 13.996-26.984 13.996z" opacity="1" data-original="#f8f7f7"></path><path fill="#e8e8e8" d="M88.5 347.5c-11.046 0-20-8.954-20-20V11.523c-8.964 5.188-15 14.874-15 25.977v295c0 16.569 13.431 30 30 30h345c11.102 0 20.789-6.036 25.977-15z" opacity="1" data-original="#e8e8e8"></path><path fill="#e8e8e8" d="M417.5 331.5h-323c-5.523 0-10-4.477-10-10v-273c0-5.523 4.477-10 10-10l4-1h320c5.523 0 10 4.477 10 10v270l-1 4c0 5.523-4.477 10-10 10z" opacity="1" data-original="#e8e8e8"></path><path fill="#d8d8d8" d="M101.553 317.5a3.053 3.053 0 0 1-3.053-3.053V37.5h-5c-5.523 0-10 4.477-10 10v275c0 5.523 4.477 10 10 10h325c5.523 0 10-4.477 10-10v-5z" opacity="1" data-original="#d8d8d8" class=""></path><path fill="#fec62a" d="m230.019 94.936-86.677 150.128c-11.547 20 2.887 45 25.981 45h173.353c23.094 0 37.528-25 25.981-45L281.981 94.936c-11.547-20-40.415-20-51.962 0z" opacity="1" data-original="#ffd163" class=""></path><path fill="#fec62a" d="M170.471 273.064c-10.271 0-16.69-11.119-11.555-20.014l99.866-172.973c-10.993-1.004-22.459 3.939-28.764 14.859l-86.677 150.128c-11.547 20 2.887 45 25.981 45h173.353c12.407 0 22.307-7.22 27.029-17z" opacity="1" data-original="#ffb65f" class=""></path><path fill="#000000" d="M210.621 200.588c-2.745 3.657-1.135 7.879 3.438 7.879l3.899 1h26.584c.719 0 3.203.737 2.918 1.397l-16.647 37.504c-2.599 6.012-.191 13.72 6.359 13.72a9.107 9.107 0 0 0 7.283-3.64l47.925-63.86c2.745-3.657.135-8.879-4.438-8.879h-30.483a1 1 0 0 1-.918-1.397l16.647-38.504c1.3-3.006.848-6.186-.748-8.615a16.468 16.468 0 0 0-.113-.168c-1.61-2.338-4.298-2.938-7.497-2.938-2.865 0-4.564.349-6.283 2.64z" opacity="1" data-original="#8d9ca8" class=""></path><g fill="#7a8c98"><path d="M264.829 133.087a9.108 9.108 0 0 0-7.283 3.64l-47.925 63.86c-2.745 3.657-.135 8.879 4.438 8.879h3.899l54.361-72.436c-1.611-2.337-4.291-3.943-7.49-3.943zM259.855 212.26a2 2 0 0 0-1.836-2.794h-13.478c.053.001.511.013.801.402.334.448.127.97.117.995L228.971 249a9.168 9.168 0 0 0-.897 4.573c.173 2.643 1.458 4.435 1.978 5.086.397.497 2.142 2.575 5.208 3.231a9.029 9.029 0 0 0 3.089.115z" fill="#000000" opacity="1" data-original="#7a8c98" class=""></path></g><path fill="#000000" d="M161.5 91.5c0-13.255-10.745-24-24-24a23.881 23.881 0 0 0-12.433 3.468C118.133 75.175 114.5 82.797 114.5 91.5c0 13.255 9.745 23 23 23 10.249 0 18.998-5.424 22.438-14.466A23.947 23.947 0 0 0 161.5 91.5z" opacity="1" data-original="#8d9ca8" class=""></path><path fill="#000000" d="M147.5 103.5c-13.255 0-24-10.745-24-24 0-3.006.558-5.88 1.567-8.532C118.133 75.176 113.5 82.797 113.5 91.5c0 13.255 10.745 24 24 24 10.249 0 18.992-6.427 22.433-15.468A23.881 23.881 0 0 1 147.5 103.5z" opacity="1" data-original="#7a8c98" class=""></path><path d="M216.438 30H93.5C83.851 30 76 37.851 76 47.5v185.351c0 4.143 3.357 7.5 7.5 7.5s7.5-3.357 7.5-7.5V47.5c0-1.379 1.121-2.5 2.5-2.5h122.938c4.143 0 7.5-3.357 7.5-7.5s-3.358-7.5-7.5-7.5zM76 322.5c0 9.649 7.851 17.5 17.5 17.5h325c9.649 0 17.5-7.851 17.5-17.5v-275c0-9.649-7.851-17.5-17.5-17.5H251.438c-4.143 0-7.5 3.357-7.5 7.5s3.357 7.5 7.5 7.5H418.5c1.379 0 2.5 1.121 2.5 2.5v275c0 1.379-1.121 2.5-2.5 2.5h-325a2.502 2.502 0 0 1-2.5-2.5v-54.649c0-4.143-3.357-7.5-7.5-7.5s-7.5 3.357-7.5 7.5z" fill="#000000" opacity="1" data-original="#000000" class=""></path><path d="M504.5 497H341c-12.406 0-22.5-10.094-22.5-22.5V370h15v101.5c0 5.79 4.71 10.5 10.5 10.5h160.5c4.143 0 7.5-3.357 7.5-7.5s-3.357-7.5-7.5-7.5h-156v-58h44c9.649 0 17.5-7.851 17.5-17.5V370h18.5c20.678 0 37.5-16.822 37.5-37.5V184.894c0-4.143-3.357-7.5-7.5-7.5s-7.5 3.357-7.5 7.5V332.5c0 12.406-10.094 22.5-22.5 22.5h-345C71.094 355 61 344.906 61 332.5v-295C61 25.094 71.094 15 83.5 15h345c12.406 0 22.5 10.094 22.5 22.5v112.394c0 4.143 3.357 7.5 7.5 7.5s7.5-3.357 7.5-7.5V37.5C466 16.822 449.178 0 428.5 0h-345C62.822 0 46 16.822 46 37.5v295c0 20.678 16.822 37.5 37.5 37.5H102v21.5c0 9.649 7.851 17.5 17.5 17.5h44v58h-54c-4.143 0-7.5 3.357-7.5 7.5s3.357 7.5 7.5 7.5H168c5.79 0 10.5-4.71 10.5-10.5V370h15v104.5c0 12.406-10.094 22.5-22.5 22.5H7.5c-4.143 0-7.5 3.357-7.5 7.5s3.357 7.5 7.5 7.5H171c20.678 0 37.5-16.822 37.5-37.5V409h25v95.5c0 4.143 3.357 7.5 7.5 7.5s7.5-3.357 7.5-7.5V370h15v134.5c0 4.143 3.357 7.5 7.5 7.5s7.5-3.357 7.5-7.5V409h25v65.5c0 20.678 16.822 37.5 37.5 37.5h163.5c4.143 0 7.5-3.357 7.5-7.5s-3.357-7.5-7.5-7.5zM395 391.5c0 1.379-1.121 2.5-2.5 2.5h-44v-24H395zM163.5 394h-44a2.502 2.502 0 0 1-2.5-2.5V370h46.5zm70 0h-25v-24h25zm45 0v-24h25v24z" fill="#000000" opacity="1" data-original="#000000" class=""></path><path d="M7.5 482h67c4.143 0 7.5-3.357 7.5-7.5s-3.357-7.5-7.5-7.5h-67c-4.143 0-7.5 3.357-7.5 7.5s3.357 7.5 7.5 7.5zM214.059 216.967h20.59l-12.722 29.425c-2.226 5.149-1.715 11.022 1.366 15.71s8.269 7.486 13.878 7.486a16.686 16.686 0 0 0 13.282-6.639l47.924-63.86a12.974 12.974 0 0 0 1.236-13.666 12.977 12.977 0 0 0-11.672-7.215H267.35l12.721-29.424a16.559 16.559 0 0 0-1.363-15.71 16.56 16.56 0 0 0-13.879-7.486 16.688 16.688 0 0 0-13.282 6.638l-47.924 63.86a12.974 12.974 0 0 0-1.236 13.666 12.976 12.976 0 0 0 11.672 7.215zm49.485-75.737a1.616 1.616 0 0 1 1.285-.643c.717 0 1.126.394 1.343.724s.416.862.132 1.52l-17.251 39.9a7.5 7.5 0 0 0 6.884 10.477h28.101l-45.582 60.738a1.616 1.616 0 0 1-1.284.642 1.543 1.543 0 0 1-1.343-.725 1.545 1.545 0 0 1-.133-1.52l17.251-39.9a7.5 7.5 0 0 0-6.884-10.477h-28.1z" fill="#000000" opacity="1" data-original="#000000" class=""></path><path d="M169.323 297.564h173.354c28.306.726 46.858-32.248 32.476-56.25L288.476 91.186c-14.558-25.616-51.445-23.958-64.951 0l-86.677 150.129c-14.844 25.531 4.937 56.479 32.475 56.249zm-19.485-48.75 86.677-150.129c7.614-14.318 30.604-15.047 38.971 0l86.677 150.129c8.536 13.621-2.231 34.079-19.485 33.75H169.323c-16.222.541-28.274-18.87-19.485-33.75zM137.5 145c4.143 0 7.5-3.357 7.5-7.5v-15.409c13.759-3.374 24-15.806 24-30.591 0-17.369-14.131-31.5-31.5-31.5S106 74.131 106 91.5c0 14.785 10.241 27.216 24 30.591V137.5c0 4.143 3.357 7.5 7.5 7.5zM121 91.5c0-9.098 7.402-16.5 16.5-16.5S154 82.402 154 91.5s-7.402 16.5-16.5 16.5-16.5-7.402-16.5-16.5z" fill="#000000" opacity="1" data-original="#000000" class=""></path></g></svg>