<svg xmlns="http://www.w3.org/2000/svg" version="1.1" xmlns:xlink="http://www.w3.org/1999/xlink" width="512" height="512" x="0" y="0" viewBox="0 0 509.47 509.47" style="enable-background:new 0 0 512 512" xml:space="preserve" class=""><g><path fill="#08437d" d="M337.656 0h12v94.421h-12z" opacity="1" data-original="#a5c8cd" class=""></path><path fill="#08437d" d="M136.83 509.47c-.747 0-1.5-.039-2.259-.118-11.805-1.233-20.375-11.802-19.142-23.607l9.616-92.066 3.411-75.98 22.25-15.962 20.522 15.962-3.274 78.55a21.36 21.36 0 0 1-.095 1.264l-9.683 92.697c-1.151 11.045-10.481 19.26-21.346 19.26z" opacity="1" data-original="#748488" class=""></path><path fill="#08437d" d="M364.007 88.528V74.447c0-11.24-9.112-20.352-20.352-20.352s-20.352 9.112-20.352 20.352v14.081c-17.753 7.828-30.151 25.571-30.151 46.219h101.004c.002-20.648-12.396-38.391-30.149-46.219z" opacity="1" data-original="#c8e6eb" class=""></path><path fill="#ba6746" d="M311.171 32.719c-7.849-6.433-19.425-5.283-25.854 2.563l-44.249 53.989-23.919 24.69 7.933 20.277 18.875 4.858 24.032-24.806c.354-.365.692-.745 1.015-1.138l44.732-54.579c6.431-7.847 5.283-19.423-2.565-25.854z" opacity="1" data-original="#ba6746" class=""></path><path fill="#fec62a" d="m217.149 113.961-41.176 42.503c-7.061 7.288-6.876 18.918.411 25.979a18.312 18.312 0 0 0 12.781 5.176c4.8 0 9.594-1.869 13.196-5.588l41.595-42.935z" opacity="1" data-original="#f2c41b" class=""></path><path fill="#08437d" d="M256.315 417.594c-11.869 0-21.49-9.622-21.49-21.491v-46.125l-49.613-32.961c-9.886-6.568-12.576-19.906-6.008-29.792 6.568-9.887 19.906-12.575 29.793-6.008l59.211 39.338a21.491 21.491 0 0 1 9.598 17.9v57.648c-.001 11.869-9.622 21.491-21.491 21.491z" opacity="1" data-original="#55696e" class=""></path><path fill="#fec62a" d="M199.861 151.542h-46.183c-13.929 0-25.22 11.292-25.22 25.22v140.936h65.959c16.936 0 30.665-13.729 30.665-30.665V176.762c-.001-13.929-11.292-25.22-25.221-25.22z" opacity="1" data-original="#ffda52" class=""></path><path fill="#ba6746" d="M214.471 94.093c-7.729-19.532-29.828-29.101-49.361-21.373-19.533 7.729-29.102 29.828-21.373 49.361s29.828 29.102 49.361 21.373c19.532-7.728 29.101-29.828 21.373-49.361z" opacity="1" data-original="#ba6746" class=""></path><path fill="#b05f3f" d="m209.978 166.148 7.171-18.065 21.53-4.16 44.748-40.061c7.558-6.767 19.172-6.126 25.941 1.434 6.768 7.56 6.126 19.174-1.434 25.942l-48.531 43.448a18.371 18.371 0 0 1-8.769 4.35l-25.553 4.937z" opacity="1" data-original="#b05f3f" class=""></path><path fill="#fec62a" d="m217.149 148.083-42.565 8.224c-9.962 1.925-16.478 11.562-14.553 21.523 1.916 9.918 11.517 16.485 21.523 14.553l43.527-8.41z" opacity="1" data-original="#f2c41b" class=""></path><path fill="#783c28" d="M323.302 509.469c-5.741 0-10.912-3.979-12.196-9.817l-13.841-62.921h-71.033l-13.841 62.921c-1.483 6.742-8.147 11.006-14.894 9.523-6.742-1.483-11.006-8.151-9.522-14.894l16-72.736a12.5 12.5 0 0 1 12.208-9.814h91.131a12.5 12.5 0 0 1 12.208 9.814l16 72.736c1.483 6.742-2.78 13.41-9.522 14.894a12.55 12.55 0 0 1-2.698.294z" opacity="1" data-original="#783c28" class=""></path></g></svg>