<svg xmlns="http://www.w3.org/2000/svg" version="1.1" xmlns:xlink="http://www.w3.org/1999/xlink" width="512" height="512" x="0" y="0" viewBox="0 0 512 512" style="enable-background:new 0 0 512 512" xml:space="preserve" class=""><g><g fill-rule="evenodd"><path fill="#ffffff" d="M163.281 52.29c0 11.042-8.957 20-20 20-11.047 0-20-8.958-20-20 0-11.048 8.953-20 20-20 11.043 0 20 8.952 20 20zM85 132.285c0 11.047-8.953 20-20 20s-20-8.953-20-20c0-11.043 8.953-20 20-20s20 8.957 20 20zM50 375.383c0 11.047-8.953 20-20 20s-20-8.953-20-20 8.953-20 20-20 20 8.953 20 20zM120 445.383c0 11.047-8.953 20-20 20s-20-8.953-20-20 8.953-20 20-20 20 8.953 20 20zM226 482c0 11.047-8.953 20-20 20s-20-8.953-20-20 8.953-20 20-20 20 8.953 20 20zM448.297 470.867c0 11.043-8.953 20-20 20-11.043 0-20-8.957-20-20 0-11.047 8.957-20 20-20 11.047 0 20 8.953 20 20zM482.277 331.785c0 11.047-8.953 20-20 20-11.043 0-20-8.953-20-20 0-11.043 8.957-20 20-20 11.047 0 20 8.957 20 20zM502 176.617c0 11.043-8.953 20-20 20s-20-8.957-20-20c0-11.047 8.953-20 20-20s20 8.953 20 20zM442 76.617c0 11.047-8.953 20-20 20s-20-8.953-20-20 8.953-20 20-20 20 8.953 20 20zM326 30c0 11.047-8.953 20-20 20s-20-8.953-20-20 8.953-20 20-20 20 8.953 20 20zm0 0" opacity="1" data-original="#ffba4a" class=""></path><path fill="#c2c2c2" d="M354 126H158c-17.598 0-32 14.402-32 32v196c0 17.598 14.402 32 32 32h196c17.598 0 32-14.402 32-32V158c0-17.598-14.402-32-32-32zm-98 32c54.125 0 98 43.875 98 98s-43.875 98-98 98-98-43.875-98-98 43.875-98 98-98zm0 0" opacity="1" data-original="#c2c2c2" class=""></path><path fill="#ebebeb" d="M354 256c0 54.125-43.875 98-98 98s-98-43.875-98-98 43.875-98 98-98 98 43.875 98 98zm0 0" opacity="1" data-original="#ebebeb" class=""></path><path fill="#ffffff" d="m274.727 177.742-64.7 90.215a3.095 3.095 0 0 0-.64 1.895 3.106 3.106 0 0 0 3.105 3.105h35.578l-16.246 58.441a3.106 3.106 0 0 0 5.45 2.86l64.699-90.215c.402-.523.64-1.18.64-1.89 0-1.72-1.39-3.11-3.105-3.11H263.93l16.246-58.441a3.107 3.107 0 0 0-5.45-2.86zm0 0" opacity="1" data-original="#ffba4a" class=""></path></g><path d="M256 148c-9.953 0-19.855 1.375-29.434 4.09-5.312 1.504-8.398 7.031-6.894 12.344 1.504 5.316 7.035 8.41 12.348 6.898A87.944 87.944 0 0 1 256 168c4.57 0 9.063.352 13.445 1.027-1.078.801-2.039 1.766-2.843 2.887l-64.641 90.133a13.182 13.182 0 0 0-2.574 7.805c0 7.226 5.879 13.105 13.105 13.105h22.418l-12.656 45.531a13.117 13.117 0 0 0 .387 8.938C190.609 324.254 168 292.719 168 256a88.102 88.102 0 0 1 11.793-44c2.762-4.781 1.121-10.898-3.66-13.66-4.781-2.758-10.899-1.121-13.66 3.66a108.107 108.107 0 0 0-14.47 54c0 59.55 48.446 108 108 108C315.556 364 364 315.55 364 256s-48.45-108-108-108zm-30.082 114.957 34.266-47.777-5.887 21.183a10 10 0 0 0 9.633 12.68h22.148l-34.262 47.777 5.887-21.183a10 10 0 0 0-9.633-12.68zM256 344c-4.57 0-9.063-.352-13.445-1.027 1.078-.801 2.039-1.766 2.843-2.887l64.637-90.129a13.188 13.188 0 0 0 2.578-7.809c0-7.226-5.879-13.105-13.105-13.105H277.09l12.656-45.527a13.127 13.127 0 0 0-.387-8.942C321.387 187.746 344 219.277 344 256c0 48.523-39.477 88-88 88zm0 0" fill="#000000" opacity="1" data-original="#000000"></path><path d="M396 266h86c5.52 0 10-4.477 10-10v-51.105c11.64-4.125 20-15.243 20-28.278 0-16.543-13.457-30-30-30s-30 13.457-30 30c0 13.035 8.36 24.153 20 28.278V246h-76v-85.465h26c5.523 0 10-4.476 10-10v-45.637c11.64-4.128 20-15.246 20-28.28 0-16.544-13.457-30-30-30s-30 13.456-30 30c0 13.034 8.363 24.152 20 28.28v35.637h-19.82C385.54 126.075 370.93 116 354 116h-88V95.535h40c5.52 0 10-4.476 10-10V58.281c11.64-4.129 20-15.246 20-28.281 0-16.543-13.457-30-30-30s-30 13.457-30 30c0 13.035 8.36 24.152 20 28.281v17.254h-40c-5.523 0-10 4.477-10 10V116h-41.793V52.285c0-5.52-4.477-10-10-10h-22.648c-4.13-11.637-15.243-20-28.278-20-16.543 0-30 13.461-30 30 0 16.543 13.457 30 30 30 13.035 0 24.149-8.36 28.278-20h12.648V116H158c-23.16 0-42 18.84-42 42v85.523H75v-82.957c11.637-4.129 20-15.242 20-28.28 0-16.544-13.457-30-30-30s-30 13.456-30 30c0 13.034 8.36 24.151 20 28.28v92.957c0 5.524 4.477 10 10 10h51V286H30c-5.523 0-10 4.477-10 10v51.105C8.36 351.23 0 362.348 0 375.383c0 16.543 13.457 30 30 30s30-13.457 30-30c0-13.035-8.36-24.153-20-28.278V306h76v29.715h-16c-5.523 0-10 4.476-10 10v71.387c-11.64 4.128-20 15.246-20 28.28 0 16.544 13.457 30 30 30s30-13.456 30-30c0-13.034-8.363-24.152-20-28.28v-61.387h6c.016 0 .027-.004.043-.004C116.945 378.078 135.414 396 158 396h88v20.465h-40c-5.523 0-10 4.476-10 10v27.254c-11.64 4.129-20 15.246-20 28.281 0 16.543 13.457 30 30 30s30-13.457 30-30c0-13.035-8.36-24.152-20-28.281v-17.254h40c5.523 0 10-4.477 10-10V396h52.297v25.2c0 5.519 4.48 10 10 10 5.523 0 10-4.481 10-10V396H354c23.156 0 42-18.84 42-42v-12.215h38c4.129 11.64 15.242 20 28.277 20 16.543 0 30-13.457 30-30s-13.457-30-30-30c-13.035 0-24.148 8.363-28.277 20h-38zm86-99.383c5.516 0 10 4.485 10 10 0 5.508-4.48 9.992-9.992 10h-.02c-5.508-.008-9.988-4.492-9.988-10 0-5.515 4.484-10 10-10zm-60-100c5.516 0 10 4.485 10 10 0 5.512-4.484 10-10 10-5.512 0-10-4.488-10-10 0-5.515 4.488-10 10-10zM306 20c5.516 0 10 4.484 10 10s-4.484 10-10 10-10-4.484-10-10 4.484-10 10-10zM143.281 62.285c-5.515 0-10-4.484-10-10 0-5.512 4.485-10 10-10 5.512 0 9.996 4.485 10 9.996v.012c-.004 5.512-4.488 9.992-10 9.992zm-78.281 60c5.516 0 10 4.488 10 10 0 5.516-4.484 10-10 10s-10-4.484-10-10c0-5.512 4.484-10 10-10zM30 385.383c-5.516 0-10-4.485-10-10 0-5.512 4.484-10 10-10s10 4.488 10 10c0 5.515-4.484 10-10 10zm70 70c-5.516 0-10-4.485-10-10 0-5.512 4.484-10 10-10 5.512 0 10 4.488 10 10 0 5.515-4.484 10-10 10zM206 492c-5.516 0-10-4.484-10-10s4.484-10 10-10 10 4.484 10 10-4.484 10-10 10zm256.281-170.215c5.512 0 10 4.488 10 10 0 5.516-4.488 10-10 10-5.515 0-10-4.484-10-10 0-5.512 4.485-10 10-10zM376 354c0 12.129-9.871 22-22 22H158c-12.129 0-22-9.871-22-22V158c0-12.129 9.871-22 22-22h196c12.129 0 22 9.871 22 22zM438.297 442.586v-21.387c0-5.523-4.477-10-10-10h-31.031c-5.524 0-10 4.477-10 10 0 5.52 4.476 10 10 10h21.03v11.387c-11.636 4.129-20 15.242-20 28.281 0 16.54 13.462 30 30 30 16.544 0 30-13.46 30-30 0-13.035-8.358-24.152-20-28.281zm-10 38.281c-5.512 0-10-4.488-10-10 0-5.515 4.488-10 10-10 5.515 0 10 4.485 10 10 0 5.512-4.485 10-10 10zm0 0" fill="#000000" opacity="1" data-original="#000000"></path><path d="M368.535 411.2h-.27c-5.523 0-10 4.476-10 10 0 5.519 4.477 10 10 10h.27c5.52 0 10-4.481 10-10 0-5.524-4.48-10-10-10zM189.2 194.293a9.988 9.988 0 0 0 6.8-2.664c4.086-3.715 4.387-10.043.672-14.129s-10.04-4.387-14.125-.672a2.597 2.597 0 0 0-.152.14c-4.047 3.75-4.286 10.071-.536 14.122a9.987 9.987 0 0 0 7.34 3.203zm0 0" fill="#000000" opacity="1" data-original="#000000"></path></g></svg>