<svg xmlns="http://www.w3.org/2000/svg" version="1.1" xmlns:xlink="http://www.w3.org/1999/xlink" width="512" height="512" x="0" y="0" viewBox="0 0 682.667 682.667" style="enable-background:new 0 0 512 512" xml:space="preserve" class=""><g><defs><clipPath id="a" clipPathUnits="userSpaceOnUse"><path d="M0 512h512V0H0Z" fill="#000000" opacity="1" data-original="#000000"></path></clipPath></defs><g clip-path="url(#a)" transform="matrix(1.33333 0 0 -1.33333 0 682.667)"><path d="M0 0v-21.026c0-16.608-13.853-30.071-30.939-30.071h-47.442c-17.087 0-30.939 13.463-30.939 30.071V0Z" style="fill-opacity:1;fill-rule:nonzero;stroke:none" transform="translate(312.207 58.597)" fill="#596c76" data-original="#596c76"></path><path d="M0 0v-21.026c0-16.608-13.853-30.071-30.939-30.071h-47.442c-17.087 0-30.939 13.463-30.939 30.071V0Z" style="fill-opacity:1;fill-rule:nonzero;stroke:none" transform="translate(312.207 58.597)" fill="#c7d1db" data-original="#c7d1db"></path><path d="M0 0v-21.029c0-1.141-.07-2.261-.19-3.37a46.852 46.852 0 0 0-12.22-1.611h-84.51c-4.22 0-8.32.561-12.21 1.611a31.25 31.25 0 0 0-.19 3.37V0Z" style="fill-opacity:1;fill-rule:nonzero;stroke:none" transform="translate(312.21 58.6)" fill="#475a61" data-original="#475a61"></path><path d="M0 0h-13v-21.029c0-.557.019-1.11.05-1.658.007-.127.02-.253.029-.38.026-.388.055-.775.097-1.158.006-.057.009-.117.014-.174l.009-.002C-11.076-39.423 2.024-51.1 17.94-51.1h13c-12.689 0-23.587 7.423-28.36 18.045-1.484 3.306.947 7.045 4.571 7.045H83.91c4.231 0 8.33.561 12.22 1.611.12 1.109.19 2.229.19 3.37V0Z" style="fill-opacity:1;fill-rule:nonzero;stroke:none" transform="translate(215.89 58.6)" fill="#b7c2cc" data-original="#b7c2cc"></path><path d="M0 0v17.121c-.001 22.355-15.422 37.424-31.328 53.571-25.394 25.778-41.031 60.961-41.031 99.748 0 79.048 64.949 143.129 145.067 143.129 80.118 0 145.067-64.081 145.067-143.129 0-38.787-15.637-73.97-41.031-99.748-15.906-16.147-28.233-30.499-28.234-52.853V.254Z" style="fill-opacity:1;fill-rule:nonzero;stroke:none" transform="translate(183.292 107.735)" fill="#fec62a" data-original="#faef63" class="" opacity="1"></path><path d="M0 0c15.91-16.149 31.33-31.22 31.33-53.569v-17.08l-25-.04v17.12C6.33-31.22-9.09-16.149-25 0c-25.39 25.78-41.03 60.96-41.03 99.75 0 79.041 64.95 143.12 145.07 143.12 4.21 0 8.38-.18 12.5-.53-74.269-6.25-132.57-67.7-132.57-142.59C-41.03 60.96-25.39 25.78 0 0" style="fill-opacity:1;fill-rule:nonzero;stroke:none" transform="translate(176.96 178.43)" fill="#fec62a" data-original="#f5de46" class="" opacity="1"></path><path d="M0 0a7.5 7.5 0 0 0-7.5 7.5v50.683a7.5 7.5 0 0 0 7.5 7.5 7.5 7.5 0 0 0 7.5-7.5V7.5A7.5 7.5 0 0 0 0 0" style="fill-opacity:1;fill-rule:nonzero;stroke:none" transform="translate(256 446.317)" fill="#fec62a" data-original="#faef63" class="" opacity="1"></path><path d="M0 0a7.475 7.475 0 0 0-5.227 2.122l-36.874 35.837a7.5 7.5 0 0 0 10.455 10.757L5.229 12.878A7.5 7.5 0 0 0 0 0" style="fill-opacity:1;fill-rule:nonzero;stroke:none" transform="translate(117.157 390.422)" fill="#fec62a" data-original="#faef63" class="" opacity="1"></path><path d="M0 0h-52.147a7.5 7.5 0 0 0-7.5 7.5 7.5 7.5 0 0 0 7.5 7.5H0a7.5 7.5 0 0 0 7.5-7.5A7.5 7.5 0 0 0 0 0" style="fill-opacity:1;fill-rule:nonzero;stroke:none" transform="translate(59.648 255.48)" fill="#fec62a" data-original="#faef63" class="" opacity="1"></path><path d="M0 0a7.5 7.5 0 0 0-5.229 12.878l36.875 35.838a7.499 7.499 0 0 0 10.605-.151 7.5 7.5 0 0 0-.15-10.605L5.227 2.122A7.475 7.475 0 0 0 0 0" style="fill-opacity:1;fill-rule:nonzero;stroke:none" transform="translate(80.285 84.7)" fill="#fec62a" data-original="#faef63" class="" opacity="1"></path><path d="M0 0a7.475 7.475 0 0 0-5.227 2.122L-42.101 37.96a7.5 7.5 0 0 0-.15 10.605 7.499 7.499 0 0 0 10.605.151L5.229 12.878A7.5 7.5 0 0 0 0 0" style="fill-opacity:1;fill-rule:nonzero;stroke:none" transform="translate(431.715 84.7)" fill="#fec62a" data-original="#faef63" class="" opacity="1"></path><path d="M0 0h-52.147a7.5 7.5 0 0 0-7.5 7.5 7.5 7.5 0 0 0 7.5 7.5H0a7.5 7.5 0 0 0 7.5-7.5A7.5 7.5 0 0 0 0 0" style="fill-opacity:1;fill-rule:nonzero;stroke:none" transform="translate(504.5 255.48)" fill="#fec62a" data-original="#faef63" class="" opacity="1"></path><path d="M0 0c-1.956 0-3.909.76-5.379 2.273a7.5 7.5 0 0 0 .15 10.605l36.875 35.838a7.5 7.5 0 0 0 10.455-10.757L5.227 2.122A7.475 7.475 0 0 0 0 0" style="fill-opacity:1;fill-rule:nonzero;stroke:none" transform="translate(394.843 390.422)" fill="#fec62a" data-original="#faef63" class="" opacity="1"></path><path d="M0 0c0-8.226-6.691-14.917-14.917-14.917h-16.492V.272c0 8.226 6.691 14.917 14.916 14.917h1.576C-6.691 15.189 0 8.498 0 .272Zm-119.072 0v.272c0 8.226 6.691 14.917 14.917 14.917h1.576c8.225 0 14.917-6.691 14.917-14.917v-15.189h-16.493c-8.226 0-14.917 6.691-14.917 14.917m104.155 30.189h-1.576c-16.496 0-29.916-13.42-29.916-29.917v-15.189h-26.253V.272c0 16.497-13.421 29.917-29.917 29.917h-1.576c-16.496 0-29.917-13.42-29.917-29.917V0c0-16.496 13.421-29.917 29.917-29.917h16.493v-99.752c0-4.143 3.357-7.5 7.5-7.5a7.5 7.5 0 0 1 7.5 7.5v99.752h26.253v-99.752c0-4.143 3.357-7.5 7.5-7.5a7.5 7.5 0 0 1 7.5 7.5v99.752h16.492C1.579-29.917 15-16.496 15 0v.272c0 16.497-13.421 29.917-29.917 29.917" style="fill-opacity:1;fill-rule:nonzero;stroke:none" transform="translate(317.083 257.451)" fill="#fec62a" data-original="#f3d333" class="" opacity="1"></path><path d="m0 0-.029-32.59-.011-15v-.6c0-17.67-14.319-32-32-32h-84.51c-17.67 0-32 14.33-32 32v.6l-.03 15-.06 32.59z" style="fill-opacity:1;fill-rule:nonzero;stroke:none" transform="translate(331.84 127.78)" fill="#c7d1db" data-original="#c7d1db"></path><path d="M0 0h-25c-17.67 0-32 14.33-32 32v.601l-.03 15-.06 32.589h25l.06-32.589.03-15V32C-32 14.33-17.67 0 0 0" style="fill-opacity:1;fill-rule:nonzero;stroke:none" transform="translate(240.29 47.59)" fill="#b7c2cc" data-original="#b7c2cc"></path><path d="m0 0-.011-15h-26.3a7.503 7.503 0 0 0-7.5 7.5c0 4.14 3.361 7.5 7.5 7.5z" style="fill-opacity:1;fill-rule:nonzero;stroke:none" transform="translate(331.81 95.19)" fill="#b7c2cc" data-original="#b7c2cc"></path><path d="M0 0c0-4.141-3.36-7.5-7.5-7.5h-86.12l-.03 15H-7.5C-3.36 7.5 0 4.14 0 0" style="fill-opacity:1;fill-rule:nonzero;stroke:none" transform="translate(276.91 87.69)" fill="#b7c2cc" data-original="#b7c2cc"></path><path d="M0 0v-50.683" style="stroke-width:15;stroke-linecap:round;stroke-linejoin:round;stroke-miterlimit:10;stroke-dasharray:none;stroke-opacity:1" transform="translate(256 504.5)" fill="none" stroke="#000000" stroke-width="15" stroke-linecap="round" stroke-linejoin="round" stroke-miterlimit="10" stroke-dasharray="none" stroke-opacity="" data-original="#000000" class=""></path><path d="m0 0 36.874-35.838" style="stroke-width:15;stroke-linecap:round;stroke-linejoin:round;stroke-miterlimit:10;stroke-dasharray:none;stroke-opacity:1" transform="translate(80.284 433.76)" fill="none" stroke="#000000" stroke-width="15" stroke-linecap="round" stroke-linejoin="round" stroke-miterlimit="10" stroke-dasharray="none" stroke-opacity="" data-original="#000000" class=""></path><path d="M0 0h52.147" style="stroke-width:15;stroke-linecap:round;stroke-linejoin:round;stroke-miterlimit:10;stroke-dasharray:none;stroke-opacity:1" transform="translate(7.5 262.98)" fill="none" stroke="#000000" stroke-width="15" stroke-linecap="round" stroke-linejoin="round" stroke-miterlimit="10" stroke-dasharray="none" stroke-opacity="" data-original="#000000" class=""></path><path d="m0 0 36.874 35.838" style="stroke-width:15;stroke-linecap:round;stroke-linejoin:round;stroke-miterlimit:10;stroke-dasharray:none;stroke-opacity:1" transform="translate(80.284 92.2)" fill="none" stroke="#000000" stroke-width="15" stroke-linecap="round" stroke-linejoin="round" stroke-miterlimit="10" stroke-dasharray="none" stroke-opacity="" data-original="#000000" class=""></path><path d="m0 0-36.874 35.838" style="stroke-width:15;stroke-linecap:round;stroke-linejoin:round;stroke-miterlimit:10;stroke-dasharray:none;stroke-opacity:1" transform="translate(431.716 92.2)" fill="none" stroke="#000000" stroke-width="15" stroke-linecap="round" stroke-linejoin="round" stroke-miterlimit="10" stroke-dasharray="none" stroke-opacity="" data-original="#000000" class=""></path><path d="M0 0h-52.147" style="stroke-width:15;stroke-linecap:round;stroke-linejoin:round;stroke-miterlimit:10;stroke-dasharray:none;stroke-opacity:1" transform="translate(504.5 262.98)" fill="none" stroke="#000000" stroke-width="15" stroke-linecap="round" stroke-linejoin="round" stroke-miterlimit="10" stroke-dasharray="none" stroke-opacity="" data-original="#000000" class=""></path><path d="m0 0-36.874-35.838" style="stroke-width:15;stroke-linecap:round;stroke-linejoin:round;stroke-miterlimit:10;stroke-dasharray:none;stroke-opacity:1" transform="translate(431.716 433.76)" fill="none" stroke="#000000" stroke-width="15" stroke-linecap="round" stroke-linejoin="round" stroke-miterlimit="10" stroke-dasharray="none" stroke-opacity="" data-original="#000000" class=""></path><path d="M0 0c20.919-24.805 33.5-56.697 33.5-91.488 0-38.787-15.638-73.97-41.031-99.748-15.906-16.147-28.234-30.499-28.235-52.853v-17.585" style="stroke-width:15;stroke-linecap:round;stroke-linejoin:round;stroke-miterlimit:10;stroke-dasharray:none;stroke-opacity:1" transform="translate(367.567 369.664)" fill="none" stroke="#000000" stroke-width="15" stroke-linecap="round" stroke-linejoin="round" stroke-miterlimit="10" stroke-dasharray="none" stroke-opacity="" data-original="#000000" class=""></path><path d="M0 0c-5.062 14.564-7.81 30.189-7.81 46.447 0 79.048 64.95 143.129 145.068 143.129 31.935 0 61.462-10.181 85.424-27.434" style="stroke-width:15;stroke-linecap:round;stroke-linejoin:round;stroke-miterlimit:10;stroke-dasharray:none;stroke-opacity:1" transform="translate(118.742 231.728)" fill="none" stroke="#000000" stroke-width="15" stroke-linecap="round" stroke-linejoin="round" stroke-miterlimit="10" stroke-dasharray="none" stroke-opacity="" data-original="#000000" class=""></path><path d="M0 0v17.121c-.001 22.355-15.422 37.424-31.328 53.571a144.136 144.136 0 0 0-17.726 21.913" style="stroke-width:15;stroke-linecap:round;stroke-linejoin:round;stroke-miterlimit:10;stroke-dasharray:none;stroke-opacity:1" transform="translate(183.292 107.735)" fill="none" stroke="#000000" stroke-width="15" stroke-linecap="round" stroke-linejoin="round" stroke-miterlimit="10" stroke-dasharray="none" stroke-opacity="" data-original="#000000" class=""></path><path d="M0 0h-84.51c-17.673 0-32 14.327-32 32v48.188H32V32C32 14.327 17.674 0 0 0Z" style="stroke-width:15;stroke-linecap:round;stroke-linejoin:round;stroke-miterlimit:10;stroke-dasharray:none;stroke-opacity:1" transform="translate(299.802 47.594)" fill="none" stroke="#000000" stroke-width="15" stroke-linecap="round" stroke-linejoin="round" stroke-miterlimit="10" stroke-dasharray="none" stroke-opacity="" data-original="#000000" class=""></path><path d="M0 0v-11.026c0-16.608-13.853-30.071-30.939-30.071h-47.442c-17.087 0-30.939 13.463-30.939 30.071V0" style="stroke-width:15;stroke-linecap:round;stroke-linejoin:round;stroke-miterlimit:10;stroke-dasharray:none;stroke-opacity:1" transform="translate(312.207 48.597)" fill="none" stroke="#000000" stroke-width="15" stroke-linecap="round" stroke-linejoin="round" stroke-miterlimit="10" stroke-dasharray="none" stroke-opacity="" data-original="#000000" class=""></path><path d="M0 0h26.299" style="stroke-width:15;stroke-linecap:round;stroke-linejoin:round;stroke-miterlimit:10;stroke-dasharray:none;stroke-opacity:1" transform="translate(305.503 87.689)" fill="none" stroke="#000000" stroke-width="15" stroke-linecap="round" stroke-linejoin="round" stroke-miterlimit="10" stroke-dasharray="none" stroke-opacity="" data-original="#000000" class=""></path><path d="M0 0h86.115" style="stroke-width:15;stroke-linecap:round;stroke-linejoin:round;stroke-miterlimit:10;stroke-dasharray:none;stroke-opacity:1" transform="translate(183.292 87.689)" fill="none" stroke="#000000" stroke-width="15" stroke-linecap="round" stroke-linejoin="round" stroke-miterlimit="10" stroke-dasharray="none" stroke-opacity="" data-original="#000000" class=""></path><path d="M0 0h-23.992v22.689c0 12.381 10.036 22.417 22.416 22.417H0c12.381 0 22.417-10.036 22.417-22.417v-.272C22.417 10.036 12.381 0 0 0Z" style="stroke-width:15;stroke-linecap:round;stroke-linejoin:round;stroke-miterlimit:10;stroke-dasharray:none;stroke-opacity:1" transform="translate(302.166 235.034)" fill="none" stroke="#000000" stroke-width="15" stroke-linecap="round" stroke-linejoin="round" stroke-miterlimit="10" stroke-dasharray="none" stroke-opacity="" data-original="#000000" class=""></path><path d="M0 0h23.993v22.689c0 12.381-10.037 22.417-22.417 22.417H0c-12.38 0-22.417-10.036-22.417-22.417v-.272C-22.417 10.036-12.38 0 0 0Z" style="stroke-width:15;stroke-linecap:round;stroke-linejoin:round;stroke-miterlimit:10;stroke-dasharray:none;stroke-opacity:1" transform="translate(212.928 235.034)" fill="none" stroke="#000000" stroke-width="15" stroke-linecap="round" stroke-linejoin="round" stroke-miterlimit="10" stroke-dasharray="none" stroke-opacity="" data-original="#000000" class=""></path><path d="M0 0v107.252h-41.253V0" style="stroke-width:15;stroke-linecap:round;stroke-linejoin:round;stroke-miterlimit:10;stroke-dasharray:none;stroke-opacity:1" transform="translate(278.174 127.782)" fill="none" stroke="#000000" stroke-width="15" stroke-linecap="round" stroke-linejoin="round" stroke-miterlimit="10" stroke-dasharray="none" stroke-opacity="" data-original="#000000" class=""></path></g></g></svg>