<?xml version="1.0" encoding="utf-8"?>
<!-- Generator: Adobe Illustrator 27.5.0, SVG Export Plug-In . SVG Version: 6.00 Build 0)  -->
<svg version="1.1" xmlns="http://www.w3.org/2000/svg" xmlns:xlink="http://www.w3.org/1999/xlink" x="0px" y="0px"
	 viewBox="0 0 500 500" style="enable-background:new 0 0 500 500;" xml:space="preserve">
<g id="BACKGROUND">
	<rect style="fill:#F9FBFC;" width="500" height="500"/>
</g>
<g id="OBJECTS">
	<g>
		<g>
			<linearGradient id="SVGID_1_" gradientUnits="userSpaceOnUse" x1="199.9738" y1="129.2676" x2="261.4759" y2="221.0401">
				<stop  offset="0" style="stop-color:#E59D24"/>
				<stop  offset="0.3068" style="stop-color:#FBD15B"/>
				<stop  offset="1" style="stop-color:#DB840A"/>
			</linearGradient>
			<path style="fill:url(#SVGID_1_);" d="M250.023,177.581c0,4.831,0,23.8,0,26.247c1.578,0,3.119,0,4.126,0
				c-1.03,3.751-22.384,81.542-22.384,81.542s17.264-25.35,35.327-51.873c15.695-23.046,31.983-46.962,38.08-55.916H250.023z"/>
			
				<linearGradient id="SVGID_00000088833212335218843870000002007428728715453100_" gradientUnits="userSpaceOnUse" x1="263.7702" y1="274.2097" x2="237.3436" y2="172.1072">
				<stop  offset="0" style="stop-color:#E59D24"/>
				<stop  offset="0.3068" style="stop-color:#FBD15B"/>
				<stop  offset="1" style="stop-color:#DB840A"/>
			</linearGradient>
			<path style="fill:url(#SVGID_00000088833212335218843870000002007428728715453100_);" d="M277.05,190.704h-27.027
				c0,5.971,0,11.836,0,13.123c1.578,0,3.119,0,4.126,0c-1.03,3.751-22.384,81.542-22.384,81.542L277.05,190.704z"/>
		</g>
		<g>
			<g>
				
					<linearGradient id="SVGID_00000104674472777611039180000007848550837143496629_" gradientUnits="userSpaceOnUse" x1="211.1925" y1="151.235" x2="326.1884" y2="268.1529">
					<stop  offset="0" style="stop-color:#492497"/>
					<stop  offset="0.3076" style="stop-color:#684BC2"/>
					<stop  offset="1" style="stop-color:#2C0070"/>
				</linearGradient>
				<path style="fill:url(#SVGID_00000104674472777611039180000007848550837143496629_);" d="M250.039,267.057
					c-14.776,0-29.55-4.304-42.424-12.909c-16.946-11.328-28.467-28.577-32.441-48.57c-3.972-19.993,0.078-40.335,11.405-57.282
					s28.576-28.467,48.569-32.441c19.996-3.981,40.337,0.076,57.283,11.404c34.984,23.383,44.419,70.87,21.036,105.853l-10.128-6.77
					c19.651-29.399,11.721-69.304-17.677-88.955c-14.241-9.519-31.342-12.921-48.138-9.584
					c-16.801,3.34-31.297,13.021-40.815,27.262c-9.519,14.241-12.923,31.336-9.584,48.138c3.339,16.801,13.02,31.296,27.261,40.815
					c21.562,14.414,49.466,14.47,71.087,0.148l6.728,10.157C279.384,262.814,264.709,267.057,250.039,267.057z"/>
			</g>
			<g>
				
					<linearGradient id="SVGID_00000065775335206360523100000000973580168414281406_" gradientUnits="userSpaceOnUse" x1="250" y1="118.3011" x2="250" y2="263.1207">
					<stop  offset="0" style="stop-color:#492497"/>
					<stop  offset="0.3076" style="stop-color:#684BC2"/>
					<stop  offset="1" style="stop-color:#2C0070"/>
				</linearGradient>
				<path style="fill:url(#SVGID_00000065775335206360523100000000973580168414281406_);" d="M250,263.121
					c-39.927,0-72.41-32.483-72.41-72.41s32.483-72.41,72.41-72.41s72.41,32.483,72.41,72.41c0,13.069-3.521,25.879-10.18,37.043
					l-3.604-2.15c6.272-10.515,9.588-22.581,9.588-34.894c0-37.613-30.6-68.213-68.213-68.213s-68.213,30.6-68.213,68.213
					s30.6,68.213,68.213,68.213c17.16,0,33.559-6.394,46.177-18.006l2.842,3.088C285.624,256.333,268.215,263.121,250,263.121z"/>
			</g>
		</g>
		<g>
			
				<linearGradient id="SVGID_00000041269811598660312580000010895650689725887150_" gradientUnits="userSpaceOnUse" x1="263.7453" y1="274.2162" x2="237.3186" y2="172.1133">
				<stop  offset="0" style="stop-color:#E59D24"/>
				<stop  offset="0.3068" style="stop-color:#FBD15B"/>
				<stop  offset="1" style="stop-color:#DB840A"/>
			</linearGradient>
			<path style="fill:url(#SVGID_00000041269811598660312580000010895650689725887150_);" d="M250.023,203.827
				c0-4.831,0-23.8,0-26.247c-1.578,0-3.119,0-4.126,0c1.03-3.751,22.384-81.542,22.384-81.542s-17.264,25.351-35.327,51.873
				c-15.695,23.046-31.983,46.962-38.08,55.916H250.023z"/>
			
				<linearGradient id="SVGID_00000171694194466253291800000016076020844192843422_" gradientUnits="userSpaceOnUse" x1="224.964" y1="112.5203" x2="286.466" y2="204.2929">
				<stop  offset="0" style="stop-color:#E59D24"/>
				<stop  offset="0.3068" style="stop-color:#FBD15B"/>
				<stop  offset="1" style="stop-color:#DB840A"/>
			</linearGradient>
			<path style="fill:url(#SVGID_00000171694194466253291800000016076020844192843422_);" d="M222.996,190.704h27.027
				c0-5.971,0-11.836,0-13.123c-1.578,0-3.119,0-4.126,0c1.03-3.751,22.384-81.542,22.384-81.542L222.996,190.704z"/>
			
				<linearGradient id="SVGID_00000054968951103015954090000013238889566068137880_" gradientUnits="userSpaceOnUse" x1="243.0981" y1="158.7313" x2="235.8908" y2="197.6508">
				<stop  offset="0" style="stop-color:#E59D24"/>
				<stop  offset="0.3068" style="stop-color:#FBD15B"/>
				<stop  offset="1" style="stop-color:#DB840A"/>
			</linearGradient>
			<polygon style="fill:url(#SVGID_00000054968951103015954090000013238889566068137880_);" points="222.996,190.704 
				194.874,203.827 254.149,203.827 277.05,190.704 			"/>
			
				<linearGradient id="SVGID_00000132797095446883400320000017542074665867856263_" gradientUnits="userSpaceOnUse" x1="264.0842" y1="157.5403" x2="264.0842" y2="216.87">
				<stop  offset="0" style="stop-color:#E59D24"/>
				<stop  offset="0.3068" style="stop-color:#FBD15B"/>
				<stop  offset="1" style="stop-color:#DB840A"/>
			</linearGradient>
			<polygon style="fill:url(#SVGID_00000132797095446883400320000017542074665867856263_);" points="245.897,177.581 
				222.996,190.704 277.05,190.704 305.172,177.581 			"/>
		</g>
		<g>
			<g>
				
					<linearGradient id="SVGID_00000039828587437274421580000012761619808436463776_" gradientUnits="userSpaceOnUse" x1="282.6909" y1="225.0602" x2="299.1875" y2="268.9443">
					<stop  offset="0" style="stop-color:#492497"/>
					<stop  offset="0.3076" style="stop-color:#684BC2"/>
					<stop  offset="1" style="stop-color:#2C0070"/>
				</linearGradient>
				<path style="fill:url(#SVGID_00000039828587437274421580000012761619808436463776_);" d="M269.463,246.007l14.548,6.47
					l5.442,14.963c0.336,0.925,1.627,0.972,2.029,0.073l15.271-34.102c0.616-1.375-0.726-2.814-2.141-2.295l-35.082,12.861
					C268.607,244.316,268.563,245.607,269.463,246.007z"/>
			</g>
			
				<linearGradient id="SVGID_00000072248715609954907780000007413000665215062199_" gradientUnits="userSpaceOnUse" x1="290.3588" y1="221.0683" x2="299.0075" y2="257.4248">
				<stop  offset="0" style="stop-color:#492497"/>
				<stop  offset="0.3076" style="stop-color:#684BC2"/>
				<stop  offset="1" style="stop-color:#2C0070"/>
			</linearGradient>
			<path style="fill:url(#SVGID_00000072248715609954907780000007413000665215062199_);" d="M306.348,231.475l-22.337,21.002
				l5.442,14.963c0.336,0.925,1.627,0.971,2.03,0.073l15.271-34.102C307.081,232.679,306.846,231.938,306.348,231.475z"/>
		</g>
	</g>
</g>
<g id="TEXTS">
	<text transform="matrix(1 0 0 1 33.03 343.4766)" style="fill:#414042; font-family:'BebasNeue'; font-size:65px;">POWER ENERGY</text>
	<text transform="matrix(1 0 0 1 174.2366 374.5176)" style="fill:#808285; font-family:'Montserrat-Medium'; font-size:18px;">YOUR TAGLINE HERE</text>
</g>
</svg>
