<svg xmlns="http://www.w3.org/2000/svg" version="1.1" xmlns:xlink="http://www.w3.org/1999/xlink" width="512" height="512" x="0" y="0" viewBox="0 0 1707 1707" style="enable-background:new 0 0 512 512" xml:space="preserve" fill-rule="evenodd" class=""><g><path fill="#2f4054" d="M1607 1521H881c-54 0-98-44-98-98V939c0-14 11-25 25-25l604-343c0-14 11-25 25-25h171c54 0 98 45 98 99v776c-1 56-45 100-99 100z" opacity="1" data-original="#2f4054"></path><path fill="#222f3d" d="M1548 1446H938c-47 0-86-39-86-86V904c0-14 11-25 25-25 51-24 517-259 519-259h154c47 0 86 38 86 86v653c0 48-39 87-88 87z" opacity="1" data-original="#222f3d"></path><path fill="#c9d9e5" d="M1098 1233c-45 0-92-5-124-35-19-18-29-44-29-76V861c0-14 11-25 25-25l172-80c14 0 25 11 25 25v224l195-43c7-1 16 0 21 4 6 5 10 11 10 20v173c0 11-8 21-19 24l-225 48h-27c-8 2-16 2-24 2z" opacity="1" data-original="#c9d9e5"></path><path fill="#abb7c1" d="M701 947c-7-11 1 19 14 12 4-2-14-19-9-21l-2-241v-2l27-11 684-256c0-12 8-22 21-25 14-1 25 7 28 21 9 72 14 201-71 254-94 58-216 114-345 173-107 49-246 101-339 153-14-8-1-44-8-57z" opacity="1" data-original="#abb7c1"></path><path fill="#d8e6ee" d="M694 733c-10 0-19-5-22-15-4-12 1-26 14-32L88 380c-14 2-26-7-28-20-3-14 7-26 20-27l902-147h344c39 0 71 13 95 41 53 77 42 201 43 203L726 696c-3 1-29 37-32 37z" opacity="1" data-original="#d8e6ee" class=""></path><path fill="#091331" d="M235 744h-57c-8 0-17-4-21-12L10 482c-1-1-1-2-1-4-2-3-24-64 10-109 20-30 55-42 105-42h3l395 43h1c49 0 114 111 196 330 4 13-1 26-14 32-12 4-399 12-470 12z" opacity="1" data-original="#091331" class=""></path><path fill="#262d43" d="M700 1005h-3l-465-58c-12-1-21-13-21-24V457c0-7 3-13 9-18 5-4 12-7 19-5l385 47 102 215v284c0 7-3 14-8 18-6 6-11 7-18 7z" opacity="1" data-original="#262d43" class=""></path><path fill="#2f4054" d="M632 904h-3l-301-35c-13-1-21-11-21-23V559c0-7 3-14 8-18 6-5 13-7 20-6l301 36c12 1 21 13 21 24v284c0 7-3 14-9 18-5 4-11 7-16 7z" opacity="1" data-original="#2f4054"></path><path fill="#37a3c8" d="M480 805c-43 0-77-38-77-86 0-47 34-85 77-85s78 38 78 85c1 48-35 86-78 86z" opacity="1" data-original="#37a3c8" class=""></path><path fill="#08437d" d="M480 682c-16 0-29 17-29 37 0 21 14 38 29 38 16 0 29-17 29-38 0-20-12-37-29-37z" opacity="1" data-original="#2d80b8" class=""></path><path fill="#bcd7e9" d="M460 682c-5 0-9 5-9 11s4 11 9 11 9-5 9-11-4-11-9-11z" opacity="1" data-original="#bcd7e9"></path></g></svg>